<svg width="144" height="144" viewBox="0 0 144 144" fill="none" xmlns="http://www.w3.org/2000/svg">
<rect width="144" height="144" rx="72" fill="url(#paint0_linear_704_9)"/>
<path d="M38.645 68V39.9468H50.1869C51.9503 39.9468 53.4999 40.3074 54.8358 41.0288C56.1983 41.7235 57.2537 42.712 58.0018 43.9944C58.7766 45.2769 59.164 46.7998 59.164 48.5631V49.1242C59.164 50.8608 58.7632 52.3837 57.9617 53.6928C57.1869 54.9753 56.1182 55.9772 54.7556 56.6985C53.4197 57.3932 51.8968 57.7405 50.1869 57.7405H43.9351V68H38.645ZM43.9351 52.9314H49.6659C50.9217 52.9314 51.9369 52.5841 52.7117 51.8894C53.4865 51.1948 53.8739 50.2463 53.8739 49.044V48.6433C53.8739 47.441 53.4865 46.4925 52.7117 45.7979C51.9369 45.1032 50.9217 44.7559 49.6659 44.7559H43.9351V52.9314ZM62.8316 68V39.9468H68.1216V51.5287H78.5414V39.9468H83.8314V68H78.5414V56.3379H68.1216V68H62.8316ZM89.1315 68V39.9468H94.4215V63.1909H107.246V68H89.1315Z" fill="white"/>
<path d="M37.8435 104V99.3512H41.5305V80.5956H37.8435V75.9468H49.3854C53.1526 75.9468 56.0113 76.9086 57.9617 78.8322C59.9388 80.7292 60.9273 83.5612 60.9273 87.3284V92.6184C60.9273 96.3855 59.9388 99.2309 57.9617 101.155C56.0113 103.052 53.1526 104 49.3854 104H37.8435ZM46.8205 99.1909H49.4656C51.6029 99.1909 53.1659 98.6298 54.1545 97.5077C55.143 96.3855 55.6373 94.8092 55.6373 92.7787V87.1681C55.6373 85.1108 55.143 83.5345 54.1545 82.4391C53.1659 81.3169 51.6029 80.7559 49.4656 80.7559H46.8205V99.1909ZM65.3363 104V75.9468H83.3705V80.7559H70.6263V87.4486H82.2484V92.2577H70.6263V99.1909H83.611V104H65.3363ZM92.7368 104L85.6032 75.9468H91.0536L96.9848 100.594H97.5459L103.477 75.9468H108.927L101.794 104H92.7368Z" fill="white"/>
<defs>
<linearGradient id="paint0_linear_704_9" x1="72" y1="0" x2="72" y2="144" gradientUnits="userSpaceOnUse">
<stop stop-color="#5075AC"/>
<stop offset="1" stop-color="#1C3D71"/>
</linearGradient>
</defs>
</svg>
