<svg width="48" height="49" viewBox="0 0 48 49" fill="none" xmlns="http://www.w3.org/2000/svg">
<path d="M42.8571 0.428467H5.14286C2.30357 0.428467 0 2.73204 0 5.57132V43.2856C0 46.1249 2.30357 48.4285 5.14286 48.4285H42.8571C45.6964 48.4285 48 46.1249 48 43.2856V5.57132C48 2.73204 45.6964 0.428467 42.8571 0.428467ZM29.7107 41.5392C28.8107 41.6999 28.4786 41.1427 28.4786 40.682C28.4786 40.1035 28.5 37.1463 28.5 34.757C28.5 33.0856 27.9429 32.0249 27.2893 31.4678C31.2536 31.0285 35.4321 30.482 35.4321 23.6356C35.4321 21.6856 34.7357 20.7106 33.6 19.457C33.7821 18.9963 34.3929 17.0999 33.4179 14.6356C31.9286 14.1749 28.5214 16.5535 28.5214 16.5535C27.1071 16.157 25.575 15.9535 24.0643 15.9535C22.5536 15.9535 21.0214 16.157 19.6071 16.5535C19.6071 16.5535 16.2 14.1749 14.7107 14.6356C13.7357 17.0892 14.3357 18.9856 14.5286 19.457C13.3929 20.7106 12.8571 21.6856 12.8571 23.6356C12.8571 30.4499 16.8536 31.0285 20.8179 31.4678C20.3036 31.9285 19.8429 32.7213 19.6821 33.857C18.6643 34.3177 16.0607 35.1106 14.5071 32.3678C13.5321 30.6749 11.775 30.5356 11.775 30.5356C10.0393 30.5142 11.6571 31.6285 11.6571 31.6285C12.8143 32.1642 13.6286 34.2213 13.6286 34.2213C14.6679 37.4035 19.6393 36.332 19.6393 36.332C19.6393 37.8213 19.6607 40.2428 19.6607 40.682C19.6607 41.1427 19.3393 41.6999 18.4286 41.5392C11.3571 39.1713 6.40714 32.4427 6.40714 24.5785C6.40714 14.7428 13.9286 7.2749 23.7643 7.2749C33.6 7.2749 41.5714 14.7428 41.5714 24.5785C41.5821 32.4427 36.7821 39.182 29.7107 41.5392ZM19.2 34.9928C18.9964 35.0356 18.8036 34.9499 18.7821 34.8106C18.7607 34.6499 18.9 34.5106 19.1036 34.4678C19.3071 34.4463 19.5 34.532 19.5214 34.6713C19.5536 34.8106 19.4143 34.9499 19.2 34.9928ZM18.1821 34.8963C18.1821 35.0356 18.0214 35.1535 17.8071 35.1535C17.5714 35.1749 17.4107 35.057 17.4107 34.8963C17.4107 34.757 17.5714 34.6392 17.7857 34.6392C17.9893 34.6177 18.1821 34.7356 18.1821 34.8963ZM16.7143 34.7785C16.6714 34.9178 16.4571 34.982 16.275 34.9178C16.0714 34.8749 15.9321 34.7142 15.975 34.5749C16.0179 34.4356 16.2321 34.3713 16.4143 34.4142C16.6286 34.4785 16.7679 34.6392 16.7143 34.7785ZM15.3964 34.1999C15.3 34.3178 15.0964 34.2963 14.9357 34.1356C14.775 33.9963 14.7321 33.7928 14.8393 33.6963C14.9357 33.5785 15.1393 33.5999 15.3 33.7606C15.4393 33.8999 15.4929 34.1142 15.3964 34.1999ZM14.4214 33.2249C14.325 33.2892 14.1429 33.2249 14.025 33.0642C13.9071 32.9035 13.9071 32.7213 14.025 32.6463C14.1429 32.5499 14.325 32.6249 14.4214 32.7856C14.5393 32.9463 14.5393 33.1392 14.4214 33.2249ZM13.725 32.1856C13.6286 32.282 13.4679 32.2285 13.35 32.1213C13.2321 31.982 13.2107 31.8213 13.3071 31.7463C13.4036 31.6499 13.5643 31.7035 13.6821 31.8106C13.8 31.9499 13.8214 32.1106 13.725 32.1856ZM13.0071 31.3927C12.9643 31.4892 12.825 31.5106 12.7071 31.4356C12.5679 31.3713 12.5036 31.2535 12.5464 31.157C12.5893 31.0927 12.7071 31.0606 12.8464 31.1142C12.9857 31.1892 13.05 31.307 13.0071 31.3927Z" fill="white"/>
</svg>
