<?xml version="1.0" encoding="UTF-8"?>
<svg id="Camada_2" data-name="Camada 2" xmlns="http://www.w3.org/2000/svg" viewBox="0 0 675.56 672.45">
  <defs>
    <style>
      .cls-1 {
        fill: #fff;
      }

      .cls-2 {
        fill: #8c6a48;
      }

      .cls-3, .cls-4 {
        fill: #825b37;
      }

      .cls-4 {
        stroke: #825b37;
        stroke-miterlimit: 10;
      }

      .cls-4, .cls-5 {
        opacity: .3;
      }

      .cls-6 {
        fill: #1e0600;
      }

      .cls-7 {
        fill: #aa9171;
      }

      .cls-8 {
        fill: #7585c6;
      }
    </style>
  </defs>
  <g id="Camada_4" data-name="Camada 4">
    <g>
      <g>
        <path class="cls-7" d="M465.26,189.83c-.47-.79-3.7-5.92-12.81-14.86-4.53-4.44-7.2-8.64-8.79-11.96-.68,2.25-1.83,3.86-3.45,4.78-1.18,.67-2.46,.9-3.66,.9-1.68,0-3.17-.45-3.96-.73l-.42-.15,.06-.52c.07-.28,.33-.46,.62-.44,.93,.1,2.67,.12,3.95-.92,.7-.57,1.18-1.4,1.43-2.47-1.3,.59-3.77,1.46-5.96,.8-1.35-.41-2.39-1.32-3.08-2.72-.86-1.75,0-3.89,2.26-5.6,.93-.71,2.02-1.27,3.17-1.64-.76-.79-2.52-2.7-4.33-5.15-3.14,2.96-5.9,4.46-8.23,4.46-.5,0-.97-.07-1.43-.2-3.17-.94-4.29-4.89-4.55-6.08l-.09-.41,.43-.23c.25-.11,.55-.01,.69,.22,.48,.76,2.19,3.23,4.2,3.23h.03c1.12-.01,2.21-.8,3.25-2.34-1.52-.35-5-1.41-6.88-4.04-1.09-1.53-1.47-3.34-1.11-5.39-1.72,1.31-4.17,2.74-6.97,3.44-.11,4.31-1.45,7.37-4.02,9.07-1.67,1.11-3.64,1.49-5.52,1.49-2.37,0-4.59-.61-5.87-1.15-.31-.13-.48-.46-.41-.79,.07-.33,.35-.57,.69-.57,.07,0,.11,0,.17,0,4.29,0,7.26-1.01,8.84-3,1.42-1.79,1.29-3.92,1.18-4.69-2.49-.3-5.05-1.37-7.46-3.71-1.95-1.88-2.73-4.31-2.09-6.49,.5-1.69,1.82-2.91,3.54-3.25,2.46-.49,4.71-.09,6.49,1.18,1.85,1.31,3.11,3.52,3.7,6.43,1.93-1,3.39-2.99,4.33-5.92-3.04-.14-16.78-1.32-20.29-10.86h0c-.19-.59-.34-.67-.34-.68-.14,.03-.61,.54-.96,.91-.97,1.05-2.35,2.54-4.42,2.54-.03,0-.06,0-.09,0,.11,.18,.23,.35,.33,.54,.68,1.38,1.33,4.07-1.96,6.56-4.62,3.5-12.51,1.37-14.68,.68-.03,.16-.05,.32-.07,.49-.54,4.4,.26,7.91,2.38,10.43,3.04,3.62,7.94,4.25,9.9,4.36,.3,.02,.54,.25,.57,.54,.03,.3-.16,.57-.46,.64-.91,.23-2.89,.63-5.21,.63-2.6,0-5.65-.51-8.16-2.35-3.02-2.22-4.72-5.92-5.04-11-.17-2.74,.23-5.41,1.12-7.79-.57-.7-2.02-3-2.16-8.28-.06-2.56-1.47-4.93-3.67-6.2-.14-.06-.25-.03-.34,0-.65,.32-1.08,2.09-1.27,2.85-.06,.23-.1,.42-.14,.54-1.31,3.99-3.39,7.19-6.18,9.54,2.23,.38,4.19,1.74,5.14,3.8,.82,1.77,.83,3.66,.03,5.61-1.42,3.5-4.8,5.96-8.59,6.26-3.2,.25-5.6-.92-7.33-3.54-1.66,4.12-.7,8.18,0,10.19,.31-.88,.71-1.74,1.22-2.54,2.07-3.29,4.98-4.45,8.39-3.37,0,0,.21,.06,.53,.19,2.18,.88,3.77,2.8,4.24,5.15,.46,2.31-.24,4.65-1.88,6.26-.73,.72-3.37,2.83-8.15,1.6,.4,.94,1.01,1.66,1.83,2.13,1.58,.91,3.85,.77,5.79-.35,2.14-1.24,3.42-3.37,3.42-5.69v-.44s.47-.11,.47-.11c.29-.04,.56,.14,.63,.41,.07,.28,.2,.79,.31,1.43,.52,2.84-.29,5.46-2.27,7.38-1.63,1.58-3.88,2.46-6.14,2.46-.61,0-1.22-.06-1.82-.19-.3-.07-1.16-.25-1.71-.48-2.17-.91-3.74-2.56-4.68-4.92-.46-1.16-.72-2.37-.83-3.59-.53-.79-4.2-6.56-3.61-12.84-.93,1.24-1.98,2.27-3.1,3.12,2.39,3.55,3.09,6.68,2.05,9.32-1.72,4.36-7.58,5.9-9.33,6.27-.05,.01-.1,.02-.15,.02-.28,0-.53-.16-.64-.43-.13-.31-.03-.67,.25-.86,3.6-2.48,5.51-5.04,5.67-7.61,.15-2.35-1.26-4.04-1.75-4.56-1.9,.72-3.83,1.04-5.58,1.04-1.18,0-2.28-.15-3.22-.41-2.82-.79-4.69-2.29-5.25-4.2-.45-1.53,0-3.2,1.21-4.59,1.66-1.89,3.69-2.93,5.87-3.01,2.23-.08,4.61,.91,6.84,2.86,.37-.79,.62-1.72,.66-2.85,.05-1.69-.46-3.43-1.47-5.03-.72-1.13-2.25-1.19-4.19-1.26-2.76-.1-6.38-.25-8.82-4.13-.12,.95-.45,1.88-.98,2.81-1.9,3.27-5.58,5.24-9.38,5-3.18-.2-5.39-1.67-6.75-4.48-2.15,3.82-1.81,7.94-1.42,10.03,.43-.82,.94-1.61,1.55-2.33,2.51-2.96,5.54-3.71,8.78-2.17,0,0,.2,.08,.5,.26,2.04,1.17,3.34,3.3,3.48,5.69,.14,2.35-.89,4.57-2.74,5.94-.82,.61-3.73,2.34-8.29,.46,.27,.99,.78,1.79,1.52,2.36,1.44,1.12,3.71,1.3,5.78,.46,2.29-.93,3.86-2.86,4.17-5.16l.06-.43,.49-.04c.29,0,.53,.22,.56,.5s.08,.8,.11,1.45c.12,2.88-1.04,5.36-3.27,6.99-1.5,1.1-3.34,1.67-5.19,1.67-1.02,0-2.04-.17-3.01-.53-.29-.11-1.11-.41-1.63-.71-2.02-1.2-3.35-3.06-3.95-5.52-.3-1.21-.39-2.45-.32-3.67-.24-.49-1.27-2.74-1.83-5.72-4.71,4.5-13.65-1.06-17.38-3.75-.27-.19-.6-.25-.92-.16-.32,.09-.57,.31-.7,.6-.72,1.65-.84,3.08-.66,4.27,2.7-1.23,5.24-1.51,7.38-.78,2.07,.7,3.72,2.28,4.76,4.57,.77,1.69,.72,3.42-.15,4.75-1.07,1.63-3.2,2.52-6.01,2.52-.08,0-.15,0-.23,0-2.43-.04-5.54-1.05-8.25-3.12-.63,.37-2.45,1.59-2.98,3.87-.58,2.51,.51,5.51,3.25,8.92,.21,.27,.21,.63,0,.9-.14,.17-.34,.26-.54,.26-.11,0-.23-.03-.34-.09-1.58-.86-6.75-4.01-7.15-8.68-.24-2.83,1.33-5.63,4.64-8.35-.95-1.28-1.73-2.77-2.28-4.47-.98,3.64-3.83,11.13-11.21,14.33,.16,.06,.32,.12,.45,.2,1.22,.75,1.97,2.15,2.01,3.75,.04,2.1-.61,3.85-1.95,5.2-2.27,2.3-5.87,2.8-7.43,2.9,.78,1.69,1.73,2.64,2.84,2.83,2.01,.35,4.1-1.84,4.7-2.52l.28-.32,.44,.21c.23,.14,.33,.43,.23,.69-.45,1.13-2.18,4.85-5.46,5.28-.21,.03-.42,.04-.63,.04-2.31,0-4.84-1.64-7.52-4.87-.67,1.57-2.85,3.42-3.98,4.11-1.23,.75-2.25,1.83-2.96,3.13-4.72,8.74-13,14.09-14.54,15.03,0,11.43,.57,23,1.67,34.38,1.26,13.06,3.25,26.21,5.93,39.1,4.33,20.87,10.48,49.14,15.11,65.31,1.94,6.77,5,13.11,9.08,18.84,9.4,13.19,34.34,43.04,50.58,55.57,1.3,1,2.65,1.92,4.14,2.94,9.94,6.73,24.14,9.45,42.19,8.08,27.28-2.06,32.07-7.15,38.7-14.18,1.44-1.52,2.92-3.1,4.74-4.77,.31-.31,32.38-32.3,41.83-50.74,6.48-12.64,17.72-64.72,23.84-94.64,2-9.78,3.46-19.79,4.35-29.75,.69-7.79,1.04-15.71,1.04-23.54v-3.87Zm-114.68,27.92c.04,.33,4.06,33.77,12.59,65.05l-.96,.26c-8.55-31.35-12.58-64.86-12.61-65.2l.99-.12Zm15.45,81.77l1-.06c.62,9.89-8.45,12.26-8.54,12.28l-.24-.97c.34-.08,8.35-2.2,7.78-11.25Zm-27.83,11.02c.33,.32,1.16,1.13,1.75,1.82,1.23,1.46,2.94,2.33,4.59,2.33h0c1.81,0,3.55-.98,5.16-2.91,7.19-8.59,11.59-6.43,11.78-6.33l-.23,.44-.23,.45s-.4-.19-1.14-.19c-1.92,1.68-4.86,2.35-5.65,2.5-1.13,.91-2.39,2.13-3.76,3.77-1.81,2.17-3.81,3.27-5.93,3.27h-.01c-1.94,0-3.94-1-5.36-2.68-.39-.46-1-1.1-1.67-1.74-.58-.55-1.16-1.02-1.73-1.43-.02,0-.03,0-.05,0-3.02,0-6.17-2.2-6.41-2.37-.59-.03-.94,0-.95,0l-.11-.99c.21-.02,5.13-.53,9.94,4.07Zm-4.69-90.94l1-.02c0,.32,.5,32.1-8.06,63.49l-.96-.26c8.52-31.24,8.03-62.89,8.02-63.21Zm-10.97,86.92c1.53,2.01,3.88,3.23,6.98,3.64l-.13,.99c-3.37-.45-5.95-1.8-7.65-4.04-2.83-3.7-2.22-8.44-2.19-8.64l.99,.13s-.57,4.54,2,7.9Zm-92.81-118.35l-1.79,.08,1.49-.99c13.43-8.95,26.09-11.39,26.22-11.42,20.86-3.32,48.22-.97,56.11-.17,1.16,.12,2.27,.63,3.13,1.45,7.49,7.16,5.54,15.35,4.76,17.69-.23,.7-.85,1.15-1.55,1.15-.05,0-.1,0-.16,0-4.08-.4-25.66-2.51-49.47-5.26-26.14-3.02-38.62-2.53-38.74-2.52Zm59.49,55.42c-5.57,0-13.11-1.67-23.09-6.88h0c-1.1-.58-1.85-1.66-1.99-2.89-.14-1.23,.33-2.45,1.28-3.26,8.01-6.88,22.86-17.51,32.39-11.48,4.11,2.6,6.55,5.76,7.25,9.37,1.01,5.22-1.99,9.45-2.11,9.63-.23,.34-3.94,5.51-13.72,5.51Zm74,115.72c-6.43,4.58-13.18,6.86-20.42,6.86-4.66,0-9.51-.95-14.61-2.83-14.53-5.38-22.26-22.08-23.29-24.44-2.65-.3-5.05-.66-7.12-1.1l.21-.98c18.33,3.89,62.35,2.16,87.59-5.39l.29,.96c-1.96,.59-4.04,1.13-6.2,1.65-1.75,10.56-9.72,20.48-16.45,25.28Zm63.49-125.49c-.14,1.24-.89,2.32-1.99,2.89h0c-9.98,5.2-17.52,6.88-23.09,6.88-9.79,0-13.5-5.17-13.73-5.52-.12-.17-3.12-4.4-2.11-9.62,.7-3.61,3.14-6.77,7.25-9.37,9.89-6.26,25.95,5.94,32.39,11.48,.94,.81,1.42,2.03,1.28,3.26Zm29.56-48.12c-.12,0-12.97-.5-39.88,2.52-24.45,2.74-46.71,4.86-50.92,5.26-.05,0-.1,0-.16,0-.71,0-1.34-.45-1.58-1.15-.8-2.34-2.81-10.53,4.9-17.69,.88-.81,2.01-1.32,3.21-1.44,8.12-.8,36.3-3.15,57.73,.17,.14,.03,13.17,2.46,26.99,11.41l1.54,1-1.83-.08Z"/>
        <g class="cls-5">
          <path class="cls-3" d="M381.46,136.43c2.48-.57,2.62-1.05,2.62-1.06-.03-.12-.46-.41-.85-.55-3.87-.88-6.89-.65-8.9,.71-.15,.1-.29,.21-.43,.32,.91,.55,3.28,1.56,7.56,.57Z"/>
          <path class="cls-3" d="M342.15,166.05c.86,2.1,2.3,3.56,4.27,4.37,.47,.19,1.28,.36,1.54,.41,2.64,.55,5.43-.22,7.32-2,1.54-1.45,2.29-3.35,2.17-5.44-.63,1.66-1.87,3.09-3.58,4.05-2.35,1.32-5.03,1.45-7,.35-1.36-.76-2.97-2.43-2.97-6.08,0-.18-.15-4.96,2.31-6.92,.99-.79,2.23-1.01,3.7-.68,2.17,.5,2.74,1.91,2.84,3.01,.17,2.02-1.08,4-3.06,4.82-1.18,.49-2.96,.62-4.74,.36,.03,.48,.09,.93,.18,1.34,4.8,1.44,7.36-.52,8.05-1.18,1.44-1.38,2.06-3.38,1.66-5.35-.42-2.02-1.82-3.67-3.75-4.42-.27-.1-.44-.15-.45-.16-.76-.23-1.48-.35-2.17-.35-2.12,0-3.9,1.1-5.32,3.29-2.05,3.15-2.42,7.09-.99,10.56Z"/>
          <path class="cls-3" d="M384.87,131.33c-2.62-1.34-5.01-1.89-7.13-1.89-4.08,0-7.14,2.05-8.82,4.45-2.04,2.9-3.03,6.65-2.77,10.57,.31,4.77,1.92,8.22,4.77,10.26,3.23,2.3,7.47,2.34,10.32,2.01-2.54-.49-5.88-1.65-8.25-4.39-2.37-2.74-3.28-6.51-2.69-11.19,.37-2.98,1.53-5.14,3.44-6.43,2.27-1.53,5.56-1.82,9.79-.85,.32,.11,1.64,.63,1.58,1.57-.05,.83-1.11,1.44-3.42,1.97-4.9,1.13-7.57-.16-8.54-.82-.72,.84-1.24,1.91-1.56,3.2,1.93,.59,9.91,2.74,14.31-.49,2.14-1.57,2.72-3.36,1.72-5.33-.55-1.08-1.5-1.99-2.76-2.64Z"/>
          <path class="cls-3" d="M345.52,146.79c2.96,1.11,6.2,.19,8.25-2.34,.45-.55,1.82-2.48,.66-3.96-.66-.84-1.46-1.31-2.46-1.43-2.6-.31-5.5,1.92-5.53,1.94-1.42,.95-2.54,1.96-3.42,3.01,.05,.79,1.06,2.24,2.5,2.78Z"/>
          <path class="cls-3" d="M349.28,161.03c1.57-.65,2.57-2.22,2.44-3.82-.1-1.14-.77-1.83-2.04-2.12-1.16-.26-2.08-.11-2.81,.48-1.7,1.35-1.92,4.6-1.94,5.73,1.96,.31,3.56,.06,4.36-.27Z"/>
          <path class="cls-3" d="M303.57,151.66c1.65-.43,2.87-1.85,2.96-3.45,.07-1.14-.5-1.92-1.72-2.38-1.11-.42-2.04-.39-2.86,.09-1.88,1.11-2.56,4.29-2.74,5.41,1.9,.58,3.51,.54,4.35,.32Z"/>
          <path class="cls-3" d="M295.79,155.67c.55,2.19,1.77,3.84,3.6,4.9,.44,.25,1.21,.53,1.47,.62,2.53,.9,5.41,.51,7.53-.99,1.73-1.23,2.75-3.01,2.93-5.1-.86,1.55-2.29,2.8-4.13,3.53-2.51,.99-5.19,.76-6.98-.59-1.23-.93-2.6-2.81-2.07-6.42,.02-.18,.56-4.93,3.28-6.54,1.09-.65,2.36-.7,3.76-.17,2.08,.78,2.44,2.26,2.38,3.37-.12,2.03-1.65,3.82-3.72,4.36-1.24,.32-3.01,.21-4.75-.28-.04,.48-.04,.93-.01,1.35,4.56,2.07,7.37,.47,8.14-.08,1.63-1.17,2.53-3.07,2.41-5.08-.12-2.05-1.27-3.88-3.08-4.88-.25-.14-.41-.21-.42-.21-.99-.46-1.95-.69-2.88-.69-1.8,0-3.46,.87-4.96,2.6-2.48,2.84-3.41,6.7-2.49,10.32Z"/>
          <path class="cls-3" d="M332.22,159.86c-.16,2.57-1.85,5.09-5.03,7.49,2.35-.68,6.13-2.21,7.38-5.29,.94-2.31,.25-5.13-2-8.38-.71,.45-1.44,.84-2.17,1.17,.73,.83,1.97,2.6,1.82,5.01Z"/>
          <path class="cls-3" d="M267.13,153.02c-3.13,2.49-4.62,5-4.4,7.48,.29,3.3,3.45,5.82,5.51,7.12-2.34-3.19-3.21-6.06-2.6-8.58,.57-2.35,2.29-3.71,3.24-4.3-.61-.52-1.19-1.09-1.74-1.72Z"/>
          <path class="cls-3" d="M306.61,127.16c-6.14,.92-10.75,7.47-10.79,7.53-4.16,5.32-2.28,12.37-1.09,15.53,.13-.57,.28-1.13,.49-1.68-.45-1.54-3.22-12.56,7.94-17.98,.11-.07,3.57-2.03,6.52-1.26,1.24,.32,2.2,1.07,2.86,2.23,1.29,2.25-.75,4.42-1.41,5.04-2.73,2.55-6.55,3.08-9.73,1.36-1.27-.68-2.16-1.96-2.48-3.07-.33,.36-.63,.72-.9,1.1,1.59,3.8,4.39,4.41,6.38,4.53,3.56,.22,6.95-1.56,8.71-4.51,.94-1.57,1.17-3.18,.67-4.77-.87-2.79-3.94-4.53-7.17-4.05Z"/>
          <path class="cls-3" d="M301.89,137.05c2.78,1.5,6.12,1.03,8.51-1.21,.52-.49,2.16-2.21,1.22-3.83-.53-.92-1.26-1.49-2.23-1.75-2.53-.66-5.73,1.15-5.76,1.17-1.54,.75-2.8,1.6-3.82,2.52-.06,.79,.73,2.36,2.07,3.09Z"/>
          <path class="cls-3" d="M348.78,136.36c-5.95,1.74-9.58,8.84-9.61,8.91-3.36,5.83-.48,12.56,1.14,15.53,.04-.58,.12-1.16,.24-1.73-.67-1.46-4.99-12,5.28-18.88,.1-.08,3.24-2.49,6.27-2.13,1.27,.15,2.33,.76,3.15,1.82,1.6,2.05-.11,4.48-.67,5.18-2.34,2.89-6.04,3.93-9.44,2.66-1.35-.51-2.42-1.65-2.9-2.71-.28,.4-.52,.8-.74,1.21,2.12,3.55,4.98,3.78,6.97,3.63,3.53-.27,6.66-2.48,7.98-5.64,.71-1.68,.7-3.3-.02-4.81-1.26-2.65-4.56-3.95-7.68-3.04Z"/>
          <path class="cls-3" d="M340.68,75.94c-.3,0-.6,0-.9,0-42.55,0-83.28,40.44-121.1,120.22,2.89-1.9,9.42-6.73,13.41-13.89,.81-1.45,1.99-2.67,3.42-3.51,1.4-.82,3.61-2.86,3.82-3.99,.04-.22-.03-.3-.05-.33h0c-.08-.11-.16-.2-.24-.3l.83-.6c3.2,4.16,6.08,6.11,8.55,5.79,1.59-.2,2.78-1.34,3.59-2.47-1.08,.74-2.43,1.34-3.83,1.1-1.66-.28-3-1.66-4-4.1l-.28-.69h.76s0,0,0,0c.15,0,5.04-.03,7.69-2.64,1.17-1.15,1.75-2.66,1.71-4.48-.03-1.26-.61-2.35-1.58-2.92-.51-.3-1.47-.5-2.66-.18-1.25,.34-3.04,1.36-4.52,4.21l-.92-.45c1.65-3.18,3.72-4.33,5.16-4.73,.18-.05,.36-.07,.55-.1v-.02c11.47-3.19,13.46-16.19,13.48-16.32l.51,.07,.51-.09c1.58,8.15,8.92,11.92,13.63,12,2.64,.05,4.63-.69,5.55-2.07,.71-1.05,.74-2.4,.08-3.78-.96-2.03-2.45-3.43-4.31-4.04-2.01-.66-4.44-.37-7.05,.83,.35,1.08,.94,1.91,1.49,2.5,.75-.97,3.06-1.44,3.41-1.48,2.06-.21,3.65,.15,5.13,2.59,.35,.58,.38,1.3,.08,1.91-.3,.6-.87,1.01-1.54,1.11-.18,.03-.37,.04-.57,.04-1.64,0-4.07-.82-5.85-2.25h0c-.06-.03-5.54-3.61-2.64-10.09,.26-.58,.77-1,1.39-1.17,.63-.17,1.3-.05,1.83,.32,3.76,2.63,12.96,8.21,17.07,3.36l.06,.05c-.49-3.47-.2-7.67,2.6-11.25,.18-.26,4.89-6.96,11.48-7.94,3.72-.56,7.28,1.47,8.3,4.72h0c2.15,5.65,6,5.79,9.39,5.91,2.12,.08,4.12,.15,5.15,1.72,1.16,1.77,1.74,3.7,1.67,5.59-.18,5.73-5.54,7.34-5.59,7.35v-.02c-1.33,.55-2.81,.81-4.13,.81-1.07,0-2.02-.16-2.67-.46-.61-.28-1.04-.83-1.15-1.49-.11-.67,.13-1.35,.64-1.81,2.13-1.92,3.75-1.83,5.68-1.06,.32,.13,2.4,1.22,2.83,2.36,.7-.42,1.51-1.06,2.16-1.99-2.15-1.87-4.39-2.84-6.5-2.75-1.96,.07-3.8,1-5.32,2.67-1.04,1.15-1.41,2.44-1.04,3.65,.48,1.58,2.15,2.83,4.71,3.53,4.52,1.23,12.65-.33,16.58-7.67,.26-.82,.62-1.64,1.08-2.45,.14-.28,3.85-7.55,10.23-9.41,.7-.2,1.41-.31,2.1-.33,3.2-2.3,5.46-5.48,6.9-9.74,.03-.1,.07-.26,.12-.46,.36-1.44,.84-3.02,1.86-3.51,.39-.19,.83-.19,1.27,0,2.62,1.46,4.27,4.16,4.34,7.06,.11,4.1,1.07,6.25,1.66,7.2,.38-.81,.82-1.58,1.33-2.3,2.8-3.98,9-7.11,17.28-2.88,.75,.39,1.41,.86,1.96,1.4,2.25,.59,3.67-.88,4.81-2.08,.72-.75,1.29-1.35,1.98-1.2,.49,.1,.77,.54,.96,.99h0c3.22,9.36,17.41,10.41,20.23,10.53,.3,.01,.56,.15,.73,.39,.17,.24,.22,.53,.13,.81-1.08,3.33-2.82,5.58-5.18,6.69-1.24,.58-2.47,.76-3.5,.76-1.54,0-2.65-.4-2.72-.43h0c-2.52-.63-4.87-2.35-5.62-3.74-.31-.58-.3-1.27,.02-1.86,.33-.6,.95-.99,1.64-1.06,2.9-.27,4.13,.76,5.17,2.5,.17,.29,1.13,2.37,.78,3.53,.82,.07,1.86,.04,2.96-.3-.53-2.75-1.71-4.82-3.44-6.01-1.6-1.1-3.64-1.45-5.9-1.01-1.41,.27-2.45,1.2-2.86,2.55-.54,1.79,.18,3.89,1.89,5.49,9.16,8.59,19.57-.9,20.11-1.41,.47-.63,1.08-1.12,1.8-1.41,.97-.39,2.28-.29,3.48,.25,1.33,.6,3.13,2.01,4.24,5.24h.01c1.98,6.46,9.22,13.49,9.29,13.56l-.05,.05c2.36-.48,4.85-.13,6.76,1.52l-.34,.37,.51-.05s.25,2.2,1.73,5.53h0s0,0,0,0c1.5,3.39,4.28,8,9.38,12.85,5.02,4.77,8.31,8.44,10.37,10.98-4.68-9.81-16.77-33.67-34.16-57.35-20.77-28.28-53.56-62.1-91.85-62.62Zm-94.83,92.18c1.32-2.34,3.11-3.55,4.99-3.44,.64,.04,1.21,.36,1.58,.88,.38,.54,.48,1.21,.27,1.83-.35,1.06-1.46,3.34-4.52,3.34-.35,0-.73-.03-1.14-.1-.53-.09-.97-.42-1.22-.9-.26-.52-.25-1.12,.03-1.61Z"/>
          <path class="cls-3" d="M407.42,152.92c.12,1.05,.14,3.27-1.45,5.22-1.63,2-4.46,3.13-8.43,3.35,2.53,.68,6.37,1.05,9.2-.77,2.3-1.48,3.52-4.19,3.68-8.02-.83,.15-1.68,.24-2.54,.24-.15,0-.3-.01-.46-.02Z"/>
          <path class="cls-3" d="M401.69,142.62c-.24,0-.51,.01-.79,.04-.35,.03-.66,.23-.83,.54-.16,.29-.17,.63-.02,.92,.59,1.1,2.91,2.93,5.56,3.36,.1,.01,.14,0,.14,0,.25-.26-.21-2.04-.67-2.81-.79-1.33-1.58-2.05-3.39-2.05Z"/>
          <path class="cls-3" d="M280.93,154.13c.33-.05,.61-.25,.76-.55,.15-.31,.14-.67-.04-.97-1.22-2-2.34-2.28-4.13-2.1-.91,.09-2.67,.77-2.74,1.13,0,0,.02,.04,.08,.1,1.91,1.83,4.8,2.57,6.07,2.39Z"/>
          <path class="cls-3" d="M247.21,169.64c3.02,.49,4.13-1.4,4.51-2.56,.11-.33,.06-.68-.15-.96-.19-.26-.48-.43-.79-.45-.06,0-.12,0-.18,0-1.9,0-3.21,1.82-3.84,2.93h0c-.12,.21-.12,.47-.01,.7,.06,.11,.19,.31,.46,.35Z"/>
          <path class="cls-3" d="M325.65,150.22c.04-.35-1.45-1.49-2.3-1.84-.67-.27-1.26-.44-1.84-.44-.86,0-1.69,.36-2.74,1.31-.26,.23-.38,.58-.32,.92,.05,.33,.26,.6,.56,.74,1.16,.53,4.15,.61,6.52-.61,.09-.05,.11-.08,.11-.08Z"/>
          <path class="cls-3" d="M426.48,152.78c-.55-1.5-1.61-3.33-3.5-3.5-.03,0-.06,0-.1,0-.28,0-.55,.12-.76,.32-.25,.25-.36,.59-.3,.93,.19,1.21,.98,3.26,4.04,3.22,.27,0,.44-.18,.51-.28,.15-.2,.19-.47,.1-.69h0Z"/>
          <path class="cls-3" d="M434.57,167.41c-1.49,1.1-2.81,2.82-2.03,4.36,.58,1.14,1.44,1.89,2.54,2.21,2.76,.8,6.23-1.15,6.26-1.17l.87-.5-.1,.98c-.18,1.81-.86,3.18-2.01,4.09-.59,.47-1.25,.76-1.91,.94,1.34,.14,2.89,.04,4.26-.72,1.7-.94,2.83-2.76,3.39-5.38-1.2-2.78-1.55-4.73-1.64-5.36-2.77-2.26-6.92-1.45-9.65,.55Zm7.85,1.2c-.78,1.89-4.76,3.68-7.1,3.68-.28,0-.53-.03-.75-.08-.8-.19-1.23-.76-1.15-1.51,.3-2.67,4.64-3.78,7.21-4.2,.59-.1,1.17,.12,1.55,.57,.37,.44,.46,1.02,.24,1.54Z"/>
          <path class="cls-3" d="M428.13,151.61c-1-3.05-2.61-4.32-3.78-4.85-1.12-.51-2.1-.45-2.65-.23-1.04,.42-1.8,1.4-2.03,2.64-.33,1.79-.01,3.36,.96,4.68,2.22,3.01,7.12,3.77,7.17,3.78l.76,.11-.39,.64c-1.38,2.26-2.93,3.42-4.62,3.44-.02,0-.03,0-.05,0-1.4,0-2.62-.78-3.55-1.68,.62,1.24,1.61,2.55,3.15,2.99,2.33,.67,5.38-.73,9.06-4.12-1.62-2.24-3.18-4.83-4.01-7.4h0Zm-.9,2.44c-.32,.44-.81,.7-1.35,.71h-.06c-3.94,0-4.81-2.84-5.01-4.07-.1-.65,.11-1.29,.57-1.77,.45-.46,1.06-.69,1.7-.63,1.89,.18,3.45,1.65,4.37,4.16,.2,.53,.11,1.13-.23,1.6Z"/>
          <path class="cls-3" d="M440.9,167.48s-.07,0-.1,0c-2.95,.48-6.17,1.61-6.35,3.32-.02,.19,0,.35,.37,.44,1.61,.38,5.99-1.4,6.65-3.01,.11-.26-.03-.47-.09-.54-.12-.14-.29-.22-.47-.22Z"/>
          <path class="cls-3" d="M340.7,74.94c-.31,0-.61,0-.92,0-43.26,0-84.56,41.16-122.76,122.35l-.66,1.41,1.39-.77c.1-.05,9.9-5.56,15.26-15.19,.72-1.3,1.78-2.38,3.05-3.13,1.16-.69,3.42-2.54,4.11-4.11,2.77,3.23,5.37,4.87,7.76,4.87,.22,0,.44-.01,.65-.04,3.38-.43,5.16-4.15,5.63-5.28,.11-.26,0-.55-.23-.69l-.45-.21-.29,.32c-.61,.68-2.78,2.87-4.84,2.52-1.14-.19-2.12-1.14-2.93-2.83,1.6-.11,5.32-.6,7.66-2.9,1.38-1.35,2.05-3.1,2.01-5.2-.03-1.6-.81-3-2.07-3.75-.14-.08-.31-.14-.47-.2,7.62-3.2,10.55-10.69,11.56-14.33,.57,1.7,1.37,3.19,2.35,4.47-3.41,2.72-5.04,5.52-4.79,8.35,.41,4.67,5.74,7.83,7.37,8.68,.11,.06,.23,.09,.35,.09,.21,0,.41-.09,.56-.25,.23-.26,.23-.63,.01-.9-2.83-3.41-3.95-6.41-3.35-8.92,.55-2.28,2.42-3.5,3.08-3.87,2.8,2.07,6,3.08,8.51,3.12,.08,0,.16,0,.23,0,2.9,0,5.1-.89,6.2-2.52,.9-1.33,.95-3.06,.16-4.75-1.08-2.28-2.78-3.86-4.91-4.57-2.21-.73-4.83-.45-7.61,.78-.18-1.2-.06-2.62,.68-4.27,.13-.3,.4-.52,.72-.6,.33-.09,.67-.03,.95,.16,3.85,2.69,13.07,8.25,17.93,3.75,.58,2.99,1.65,5.23,1.89,5.72-.07,1.22,.03,2.46,.33,3.67,.62,2.46,1.99,4.32,4.08,5.52,.47,.27,1.16,.53,1.68,.71,1,.36,2.06,.53,3.11,.53,1.91,0,3.8-.57,5.35-1.67,2.3-1.63,3.5-4.11,3.37-6.99-.03-.65-.08-1.17-.12-1.46-.04-.28-.29-.49-.58-.5l-.51,.04-.06,.44c-.33,2.3-1.94,4.23-4.31,5.16-2.14,.84-4.48,.66-5.96-.46-.77-.58-1.29-1.38-1.57-2.36,4.7,1.88,7.7,.15,8.55-.46,1.91-1.37,2.96-3.59,2.82-5.94-.14-2.39-1.49-4.52-3.59-5.69-.31-.17-.51-.26-.51-.26-3.34-1.55-6.46-.8-9.05,2.17-.63,.73-1.16,1.52-1.61,2.35-.43-2.09-.83-6.24,1.46-10.09,1.4,2.83,3.68,4.33,6.98,4.52,3.91,.23,7.71-1.73,9.67-5,.55-.93,.89-1.87,1.01-2.81,2.53,3.88,6.26,4.03,9.1,4.13,2,.07,3.58,.13,4.32,1.26,1.04,1.6,1.57,3.34,1.51,5.03-.04,1.13-.3,2.06-.68,2.85-2.3-1.95-4.73-2.95-7.06-2.86-2.25,.08-4.35,1.12-6.06,3.01-1.26,1.39-1.72,3.07-1.25,4.59,.59,1.92,2.51,3.41,5.42,4.2,.97,.27,2.1,.41,3.32,.41,1.8,0,3.79-.32,5.75-1.04,.51,.52,1.96,2.2,1.81,4.56-.17,2.57-2.13,5.13-5.85,7.61-.29,.19-.4,.55-.26,.86,.12,.27,.38,.43,.66,.43,.05,0,.1,0,.15-.02,1.81-.37,7.85-1.91,9.63-6.27,1.07-2.64,.35-5.77-2.12-9.32,1.16-.84,2.24-1.88,3.2-3.12-.6,6.28,3.18,12.04,3.72,12.84,.11,1.22,.38,2.43,.86,3.59,.97,2.35,2.59,4.01,4.83,4.92,.5,.2,1.22,.37,1.76,.48,.62,.13,1.25,.19,1.88,.19,2.34,0,4.65-.87,6.34-2.46,2.04-1.92,2.88-4.54,2.34-7.38-.12-.64-.25-1.14-.32-1.42-.08-.28-.37-.45-.64-.42l-.5,.11v.44c0,2.32-1.31,4.45-3.52,5.69-2,1.12-4.34,1.26-5.97,.35-.84-.47-1.48-1.19-1.89-2.13,4.92,1.23,7.65-.88,8.4-1.6,1.69-1.61,2.42-3.96,1.94-6.26-.48-2.35-2.12-4.27-4.37-5.15-.33-.13-.54-.19-.55-.19-3.52-1.08-6.52,.08-8.65,3.37-.52,.8-.94,1.66-1.26,2.54-.73-2.01-1.72-6.07,0-10.19,1.79,2.62,4.26,3.79,7.56,3.54,3.91-.3,7.39-2.75,8.86-6.26,.82-1.95,.81-3.84-.03-5.61-.98-2.05-2.99-3.42-5.3-3.8,2.88-2.35,5.02-5.55,6.37-9.54,.04-.11,.09-.3,.15-.54,.19-.76,.64-2.53,1.31-2.85,.09-.04,.2-.07,.35,0,2.26,1.27,3.71,3.64,3.78,6.2,.14,5.28,1.64,7.57,2.22,8.28-.92,2.39-1.33,5.05-1.15,7.79,.33,5.08,2.08,8.78,5.19,11,2.59,1.84,5.73,2.35,8.42,2.35,2.4,0,4.43-.41,5.38-.63,.3-.07,.5-.34,.47-.64-.03-.3-.28-.53-.59-.54-2.03-.1-7.07-.73-10.21-4.36-2.18-2.52-3.01-6.03-2.45-10.42,.02-.17,.04-.33,.07-.49,2.24,.69,10.37,2.82,15.14-.68,3.4-2.49,2.73-5.18,2.03-6.57-.1-.19-.22-.36-.34-.54,.03,0,.07,0,.1,0,2.13,0,3.55-1.49,4.56-2.54,.35-.37,.84-.88,.99-.91,0,0,.15,.09,.35,.68h0c3.61,9.54,17.79,10.72,20.92,10.86-.97,2.93-2.47,4.91-4.47,5.91-.6-2.91-1.91-5.12-3.81-6.43-1.84-1.26-4.16-1.67-6.7-1.18-1.77,.34-3.14,1.56-3.65,3.25-.65,2.14,.18,4.63,2.16,6.49,2.49,2.34,5.13,3.41,7.7,3.71,.11,.77,.25,2.9-1.22,4.69-1.65,2.02-4.79,3.01-9.29,3h0c-.35,0-.64,.23-.71,.56-.07,.33,.1,.66,.43,.79,1.32,.54,3.61,1.15,6.05,1.15,1.94,0,3.97-.38,5.69-1.49,2.64-1.7,4.03-4.76,4.14-9.07,2.88-.71,5.42-2.13,7.19-3.44-.37,2.04,.02,3.86,1.14,5.39,1.94,2.63,5.53,3.69,7.09,4.04-1.07,1.54-2.2,2.33-3.35,2.34-.01,0-.02,0-.03,0-2.08,0-3.84-2.47-4.34-3.23-.15-.23-.45-.33-.71-.22l-.44,.23,.09,.41c.28,1.19,1.43,5.14,4.7,6.08,.47,.14,.96,.2,1.47,.2,2.4,0,5.25-1.51,8.49-4.46,1.86,2.45,3.68,4.36,4.46,5.15-1.19,.37-2.31,.94-3.27,1.64-2.32,1.71-3.22,3.85-2.33,5.6,.71,1.4,1.78,2.32,3.17,2.72,2.26,.66,4.81-.21,6.15-.8-.25,1.07-.75,1.9-1.47,2.47-1.32,1.04-3.12,1.03-4.07,.92-.29-.03-.57,.16-.64,.44l-.06,.52,.43,.15c.81,.29,2.35,.73,4.08,.73,1.23,0,2.56-.23,3.77-.9,1.67-.92,2.85-2.54,3.56-4.78,1.64,3.32,4.4,7.52,9.07,11.96,10.2,9.7,13.25,14.91,13.27,14.96l.93-.44c-.14-.31-13.8-31.39-36.41-62.18-20.91-28.48-53.96-62.53-92.68-63.05Zm-75.06,84.1c-.61,2.51,.27,5.39,2.6,8.58-2.06-1.3-5.22-3.82-5.51-7.12-.22-2.48,1.28-4.99,4.4-7.48,.55,.63,1.13,1.2,1.74,1.72-.95,.59-2.67,1.95-3.24,4.3Zm32.65-13.69c1.51-1.73,3.17-2.6,4.96-2.6,.92,0,1.88,.23,2.88,.69,.01,0,.17,.07,.42,.21,1.8,1,2.95,2.83,3.08,4.88,.12,2.01-.78,3.91-2.41,5.08-.77,.55-3.58,2.15-8.14,.08-.03-.43-.03-.88,.01-1.35,1.74,.5,3.51,.61,4.75,.28,2.07-.54,3.6-2.34,3.72-4.36,.06-1.1-.3-2.58-2.38-3.37-1.41-.53-2.67-.47-3.76,.17-2.72,1.61-3.26,6.36-3.28,6.54-.52,3.61,.84,5.49,2.07,6.42,1.79,1.36,4.47,1.58,6.98,.59,1.83-.72,3.27-1.97,4.13-3.53-.18,2.09-1.2,3.87-2.93,5.1-2.13,1.51-5,1.89-7.53,.99-.25-.09-1.03-.36-1.47-.62-1.84-1.06-3.05-2.71-3.6-4.9-.92-3.62,.02-7.48,2.49-10.32Zm.94,5.99c.18-1.12,.86-4.3,2.74-5.41,.81-.48,1.75-.51,2.86-.09,1.22,.46,1.79,1.24,1.72,2.38-.09,1.6-1.31,3.02-2.96,3.45-.84,.22-2.45,.25-4.35-.32Zm13.88-15.36c-1.76,2.95-5.16,4.72-8.71,4.51-1.99-.12-4.79-.73-6.38-4.53,.27-.37,.57-.74,.9-1.1,.32,1.11,1.21,2.39,2.48,3.07,3.18,1.72,7,1.18,9.73-1.36,.66-.61,2.7-2.79,1.41-5.04-.66-1.15-1.63-1.9-2.86-2.23-2.95-.77-6.41,1.2-6.52,1.26-11.16,5.42-8.39,16.44-7.94,17.98-.2,.55-.36,1.11-.49,1.68-1.19-3.16-3.07-10.21,1.09-15.53,.05-.07,4.65-6.61,10.79-7.53,3.22-.48,6.3,1.26,7.17,4.05,.49,1.59,.27,3.19-.67,4.77Zm-13.29-2.01c1.03-.92,2.28-1.77,3.82-2.52,.03-.02,3.23-1.83,5.76-1.17,.97,.25,1.7,.82,2.23,1.75,.93,1.62-.7,3.34-1.22,3.83-2.39,2.24-5.73,2.71-8.51,1.21-1.35-.73-2.14-2.3-2.07-3.09Zm34.76,28.1c-1.25,3.08-5.02,4.61-7.38,5.29,3.18-2.4,4.87-4.92,5.03-7.49,.15-2.41-1.09-4.18-1.82-5.01,.74-.33,1.47-.72,2.17-1.17,2.25,3.25,2.94,6.07,2,8.38Zm8.57-6.58c1.43-2.19,3.21-3.29,5.32-3.29,.69,0,1.41,.12,2.17,.35,.01,0,.18,.05,.45,.16,1.93,.75,3.33,2.4,3.75,4.42,.41,1.97-.21,3.98-1.66,5.35-.68,.65-3.24,2.61-8.05,1.18-.09-.42-.15-.87-.18-1.34,1.79,.26,3.56,.13,4.74-.36,1.97-.82,3.23-2.8,3.06-4.82-.09-1.1-.66-2.52-2.84-3.01-1.47-.34-2.72-.11-3.7,.68-2.46,1.96-2.32,6.73-2.31,6.92,0,3.65,1.62,5.32,2.97,6.08,1.97,1.1,4.65,.97,7-.35,1.71-.96,2.96-2.39,3.58-4.05,.12,2.09-.63,4-2.17,5.44-1.89,1.78-4.68,2.55-7.32,2-.26-.05-1.07-.22-1.54-.41-1.97-.8-3.41-2.27-4.27-4.37-1.43-3.47-1.06-7.41,.99-10.56Zm1.78,5.8c.02-1.13,.23-4.38,1.94-5.73,.74-.58,1.66-.74,2.81-.48,1.28,.29,1.95,.99,2.04,2.12,.14,1.6-.87,3.17-2.44,3.82-.8,.33-2.39,.58-4.36,.27Zm11.53-21.89c.72,1.51,.72,3.13,.02,4.81-1.32,3.16-4.46,5.37-7.98,5.64-1.99,.15-4.85-.08-6.97-3.63,.22-.4,.46-.81,.74-1.21,.47,1.06,1.54,2.2,2.9,2.71,3.39,1.27,7.1,.23,9.44-2.66,.56-.7,2.28-3.13,.67-5.18-.82-1.05-1.88-1.67-3.15-1.82-3.04-.36-6.17,2.05-6.27,2.13-10.28,6.87-5.95,17.42-5.28,18.88-.12,.57-.2,1.15-.24,1.73-1.63-2.97-4.5-9.7-1.14-15.53,.04-.07,3.66-7.18,9.61-8.91,3.12-.91,6.42,.4,7.68,3.04Zm-13.43,4.61c.88-1.05,2.01-2.06,3.42-3.01,.03-.02,2.93-2.25,5.53-1.94,1,.12,1.8,.59,2.46,1.43,1.16,1.48-.22,3.4-.66,3.96-2.05,2.53-5.29,3.45-8.25,2.34-1.44-.54-2.45-1.99-2.5-2.78Zm42.89-4.71c-4.4,3.23-12.38,1.08-14.31,.49,.33-1.3,.85-2.37,1.56-3.2,.97,.66,3.63,1.95,8.54,.82,2.31-.53,3.36-1.14,3.42-1.97,.06-.94-1.26-1.46-1.58-1.57-4.23-.97-7.52-.68-9.79,.85-1.91,1.29-3.07,3.45-3.44,6.43-.59,4.68,.31,8.45,2.69,11.19,2.37,2.74,5.72,3.9,8.25,4.39-2.85,.33-7.09,.29-10.32-2.01-2.86-2.03-4.46-5.48-4.77-10.26-.25-3.91,.73-7.67,2.77-10.57,1.68-2.39,4.74-4.45,8.82-4.45,2.11,0,4.51,.55,7.13,1.89,1.26,.64,2.22,1.56,2.76,2.64,1,1.96,.42,3.76-1.72,5.33Zm-12-3.44c.14-.11,.28-.22,.43-.32,2.02-1.36,5.03-1.6,8.9-.71,.39,.14,.82,.43,.85,.55,0,0-.15,.49-2.62,1.06-4.27,.98-6.65-.02-7.56-.57Zm32.83,24.86c-2.83,1.82-6.67,1.46-9.2,.77,3.96-.22,6.79-1.34,8.43-3.35,1.59-1.95,1.57-4.17,1.45-5.22,.15,0,.3,.02,.46,.02,.87,0,1.71-.09,2.54-.24-.15,3.83-1.38,6.54-3.68,8.02Zm16.34,2.4c-1.54-.44-2.53-1.75-3.15-2.99,.93,.89,2.15,1.68,3.55,1.68,.02,0,.03,0,.05,0,1.68-.02,3.24-1.18,4.62-3.44l.39-.64-.76-.11s-4.95-.77-7.17-3.78c-.97-1.32-1.29-2.89-.96-4.68,.23-1.24,.99-2.22,2.03-2.64,.55-.22,1.53-.27,2.65,.23,1.17,.53,2.78,1.8,3.78,4.85h0c.83,2.57,2.39,5.16,4.01,7.4-3.69,3.39-6.73,4.79-9.06,4.12Zm19.38,14.48c-1.37,.76-2.92,.86-4.26,.72,.65-.18,1.32-.47,1.91-.94,1.15-.9,1.82-2.28,2.01-4.09l.1-.98-.87,.5s-3.5,1.97-6.26,1.17c-1.11-.32-1.96-1.07-2.54-2.21-.78-1.54,.54-3.26,2.03-4.36,2.73-2,6.88-2.81,9.65-.55,.09,.63,.44,2.58,1.64,5.36-.56,2.63-1.7,4.44-3.39,5.38Zm13.86,7.33c-5.1-4.85-7.88-9.46-9.38-12.85,0,0,0,0,0,0h0c-1.48-3.33-1.72-5.49-1.73-5.53l-.51,.05,.34-.37c-1.91-1.66-4.4-2-6.76-1.52l.05-.05c-.07-.07-7.31-7.11-9.29-13.57h-.01c-1.12-3.23-2.91-4.63-4.24-5.24-1.21-.55-2.51-.64-3.48-.25-.72,.29-1.33,.78-1.8,1.41-.54,.51-10.96,10-20.11,1.41-1.7-1.6-2.43-3.7-1.89-5.49,.41-1.35,1.45-2.28,2.86-2.55,2.26-.44,4.3-.09,5.9,1.01,1.73,1.19,2.91,3.26,3.44,6.01-1.09,.35-2.14,.38-2.96,.3,.36-1.16-.6-3.24-.78-3.53-1.04-1.75-2.27-2.77-5.17-2.5-.69,.06-1.31,.46-1.64,1.06-.33,.58-.34,1.28-.02,1.86,.75,1.39,3.1,3.11,5.62,3.73h0c.08,.04,1.18,.44,2.72,.44,1.03,0,2.26-.18,3.5-.76,2.36-1.11,4.1-3.36,5.18-6.69,.09-.28,.04-.57-.13-.81-.17-.24-.44-.38-.73-.39-2.81-.12-17.01-1.17-20.23-10.53h0c-.19-.45-.47-.88-.96-.99-.69-.15-1.26,.45-1.98,1.2-1.14,1.19-2.56,2.67-4.81,2.08-.55-.54-1.21-1.02-1.96-1.4-8.28-4.24-14.48-1.1-17.28,2.88-.51,.72-.95,1.49-1.33,2.3-.59-.95-1.55-3.1-1.66-7.2-.08-2.9-1.72-5.6-4.34-7.06-.44-.19-.88-.19-1.27,0-1.02,.49-1.49,2.06-1.86,3.51-.05,.2-.09,.36-.12,.46-1.44,4.26-3.7,7.45-6.9,9.74-.7,.02-1.4,.12-2.1,.33-6.38,1.86-10.09,9.13-10.23,9.41-.47,.81-.82,1.63-1.08,2.45-3.93,7.33-12.06,8.9-16.58,7.67-2.55-.7-4.23-1.95-4.71-3.53-.37-1.21,0-2.5,1.04-3.65,1.52-1.68,3.36-2.6,5.32-2.67,2.11-.08,4.35,.88,6.5,2.75-.65,.93-1.47,1.57-2.16,1.99-.43-1.14-2.51-2.23-2.83-2.36-1.92-.77-3.54-.87-5.68,1.06-.51,.46-.75,1.13-.64,1.81,.11,.66,.53,1.21,1.15,1.49,.65,.3,1.61,.46,2.67,.46,1.32,0,2.8-.27,4.12-.81v.02c.06-.02,5.42-1.63,5.6-7.35,.06-1.89-.52-3.83-1.67-5.59-1.03-1.58-3.03-1.65-5.15-1.72-3.39-.12-7.24-.26-9.39-5.91h0c-1.03-3.25-4.59-5.27-8.3-4.72-6.58,.99-11.3,7.68-11.48,7.94-2.8,3.58-3.09,7.78-2.6,11.25l-.06-.05c-4.12,4.85-13.31-.74-17.07-3.36-.53-.37-1.2-.48-1.83-.32-.63,.17-1.14,.6-1.39,1.17-2.89,6.48,2.59,10.06,2.64,10.09h0c1.78,1.43,4.21,2.25,5.85,2.25,.2,0,.39-.01,.57-.04,.67-.1,1.24-.51,1.54-1.11,.3-.61,.27-1.33-.08-1.91-1.48-2.44-3.06-2.8-5.13-2.59-.35,.03-2.66,.51-3.41,1.48-.54-.6-1.14-1.43-1.49-2.5,2.61-1.2,5.04-1.5,7.05-.83,1.86,.61,3.35,2.01,4.31,4.04,.66,1.39,.63,2.73-.08,3.78-.93,1.38-2.92,2.12-5.55,2.07-4.71-.08-12.05-3.85-13.63-12l-.51,.09-.51-.07c-.02,.13-2.01,13.14-13.48,16.32v.02c-.18,.03-.36,.05-.54,.1-1.44,.4-3.51,1.54-5.16,4.73l.92,.45c1.48-2.86,3.28-3.87,4.52-4.21,1.19-.33,2.15-.12,2.66,.18,.96,.57,1.55,1.66,1.58,2.92,.04,1.82-.54,3.32-1.71,4.48-2.65,2.61-7.54,2.64-7.69,2.64h-.77s.28,.68,.28,.68c1,2.44,2.34,3.82,4,4.1,1.4,.23,2.75-.36,3.83-1.1-.81,1.13-2,2.27-3.59,2.47-2.48,.31-5.35-1.63-8.55-5.79l-.83,.6c.08,.1,.16,.19,.24,.29h0s.09,.11,.05,.33c-.21,1.13-2.42,3.17-3.82,3.99-1.43,.84-2.61,2.06-3.42,3.51-3.99,7.17-10.52,12-13.41,13.89,37.81-79.78,78.55-120.22,121.1-120.22,.3,0,.6,0,.9,0,38.29,.51,71.08,34.33,91.85,62.62,17.39,23.69,29.48,47.54,34.16,57.35-2.07-2.54-5.36-6.21-10.37-10.98Zm-50.56-37.45s-.04,.01-.14,0c-2.65-.43-4.97-2.26-5.56-3.36-.16-.29-.15-.62,.02-.92,.17-.3,.48-.51,.83-.54,.28-.03,.54-.04,.79-.04,1.81,0,2.6,.72,3.39,2.05,.46,.77,.93,2.55,.67,2.81Zm-86.74,3.42c-.3-.14-.51-.41-.56-.74-.06-.34,.07-.69,.32-.92,1.05-.94,1.88-1.31,2.74-1.31,.58,0,1.17,.17,1.84,.44,.85,.34,2.34,1.48,2.3,1.84,0,0-.02,.03-.11,.08-2.37,1.22-5.36,1.13-6.52,.61Zm-44.23,.73c.07-.36,1.83-1.04,2.74-1.13,1.79-.18,2.92,.1,4.13,2.1,.18,.29,.19,.66,.04,.97-.15,.3-.42,.5-.76,.55-1.27,.18-4.16-.57-6.07-2.39-.07-.06-.08-.1-.08-.1Z"/>
          <path class="cls-3" d="M440.62,166.5c-2.56,.42-6.91,1.53-7.21,4.2-.08,.76,.35,1.32,1.15,1.51,.22,.05,.48,.08,.75,.08,2.33,0,6.32-1.8,7.1-3.68,.22-.52,.12-1.1-.24-1.54-.37-.45-.96-.67-1.55-.57Zm.83,1.74c-.66,1.6-5.04,3.39-6.65,3.01-.38-.09-.39-.25-.37-.44,.19-1.71,3.41-2.84,6.35-3.32,.03,0,.07,0,.1,0,.18,0,.35,.08,.47,.22,.06,.08,.2,.28,.09,.54Z"/>
          <path class="cls-3" d="M423.09,148.28c-.64-.06-1.26,.17-1.7,.63-.46,.48-.67,1.12-.57,1.77,.19,1.23,1.07,4.07,5.01,4.07h.06c.54,0,1.03-.26,1.35-.71,.34-.47,.42-1.07,.23-1.6-.92-2.51-2.48-3.99-4.37-4.16Zm3.3,5.19c-.07,.1-.24,.28-.51,.28-3.06,.04-3.85-2.01-4.04-3.22-.05-.34,.06-.68,.3-.93,.2-.21,.48-.32,.76-.32,.03,0,.06,0,.1,0,1.89,.18,2.95,2,3.5,3.5h0c.08,.22,.04,.49-.1,.69Z"/>
          <path class="cls-3" d="M247.04,170.63c.41,.07,.79,.1,1.14,.1,3.06,0,4.17-2.28,4.52-3.34,.21-.62,.11-1.29-.27-1.83-.37-.52-.94-.84-1.58-.88-1.88-.11-3.67,1.11-4.99,3.44-.28,.49-.29,1.1-.03,1.61,.24,.49,.69,.82,1.22,.9Zm-.28-2.03h0c.63-1.11,1.95-2.93,3.84-2.93,.06,0,.12,0,.18,0,.32,.02,.61,.18,.79,.45,.2,.29,.25,.64,.15,.96-.39,1.17-1.49,3.06-4.51,2.56-.27-.04-.4-.24-.46-.35-.11-.22-.11-.49,.01-.7Z"/>
        </g>
        <path class="cls-6" d="M307.98,116.5c-5.95,.92-10.42,7.47-10.47,7.53-4.04,5.32-2.21,12.37-1.06,15.53,.12-.57,.27-1.13,.47-1.68-.44-1.53-3.13-12.56,7.7-17.98,.11-.07,3.46-2.03,6.32-1.26,1.2,.32,2.13,1.07,2.78,2.22,1.25,2.25-.73,4.42-1.37,5.04-2.65,2.55-6.35,3.08-9.43,1.36-1.22-.68-2.08-1.94-2.4-3.04-.32,.36-.61,.73-.87,1.1,1.55,3.77,4.25,4.38,6.18,4.5,3.45,.22,6.74-1.56,8.45-4.51,.91-1.57,1.13-3.18,.65-4.77-.84-2.79-3.82-4.53-6.95-4.05Z"/>
        <path class="cls-6" d="M297.49,145.01c.54,2.19,1.71,3.84,3.49,4.9,.29,.17,.77,.38,1.43,.62,2.45,.9,5.23,.51,7.3-1,1.68-1.22,2.67-3.01,2.84-5.1-.83,1.56-2.23,2.81-4,3.53-2.44,.99-5.03,.76-6.77-.59-1.2-.93-2.52-2.81-2.01-6.42,.02-.18,.54-4.93,3.18-6.54,1.06-.64,2.29-.7,3.65-.17,2.02,.78,2.37,2.26,2.3,3.37-.11,2.03-1.6,3.82-3.61,4.36-1.2,.33-2.92,.21-4.61-.28-.04,.48-.04,.93-.01,1.35,4.42,2.07,7.15,.47,7.89-.08,1.58-1.17,2.45-3.07,2.33-5.08-.12-2.05-1.24-3.88-2.98-4.88-.24-.14-.4-.21-.41-.21-.96-.46-1.9-.69-2.79-.69-1.74,0-3.35,.87-4.81,2.59-2.4,2.84-3.31,6.7-2.42,10.32Z"/>
        <path class="cls-7" d="M303.41,126.39c2.69,1.5,5.93,1.03,8.25-1.21,.51-.49,2.09-2.21,1.19-3.83-.51-.92-1.22-1.49-2.16-1.75-2.45-.66-5.55,1.15-5.58,1.17-1.5,.75-2.72,1.61-3.71,2.54-.05,.8,.72,2.35,2.01,3.07Z"/>
        <path class="cls-7" d="M305.04,141c1.6-.43,2.78-1.85,2.87-3.45,.06-1.14-.48-1.92-1.67-2.38-1.08-.42-1.98-.39-2.77,.09-1.82,1.11-2.48,4.29-2.66,5.41,1.85,.58,3.41,.54,4.22,.32Z"/>
        <path class="cls-7" d="M345.72,136.12c2.87,1.11,6.02,.19,8-2.34,.43-.55,1.76-2.48,.64-3.96-.64-.84-1.42-1.31-2.38-1.43-2.51-.31-5.34,1.92-5.36,1.94-1.37,.95-2.46,1.96-3.32,3.01,.05,.79,1.03,2.24,2.42,2.78Z"/>
        <path class="cls-6" d="M342.45,155.38c.84,2.1,2.23,3.57,4.14,4.37,.31,.13,.81,.27,1.5,.42,2.55,.54,5.25-.22,7.09-2,1.49-1.45,2.22-3.35,2.11-5.45-.61,1.66-1.81,3.09-3.47,4.05-2.28,1.32-4.88,1.46-6.79,.35-1.32-.76-2.88-2.43-2.88-6.08,0-.18-.15-4.96,2.24-6.92,.96-.79,2.16-1.02,3.59-.68,2.11,.49,2.66,1.91,2.75,3.01,.17,2.02-1.05,4.01-2.97,4.82-1.15,.49-2.87,.62-4.6,.36,.03,.48,.09,.93,.18,1.34,4.66,1.44,7.14-.53,7.8-1.18,1.4-1.38,2-3.38,1.61-5.35-.4-2.02-1.76-3.67-3.63-4.42-.26-.1-.42-.15-.44-.15-.73-.23-1.44-.35-2.1-.35-2.05,0-3.78,1.1-5.16,3.29-1.98,3.14-2.34,7.09-.96,10.56Z"/>
        <path class="cls-6" d="M348.87,125.69c-5.76,1.73-9.29,8.84-9.32,8.91-3.26,5.84-.47,12.56,1.11,15.53,.04-.58,.11-1.16,.23-1.73-.64-1.46-4.84-12,5.12-18.88,.1-.08,3.14-2.49,6.08-2.13,1.23,.15,2.26,.76,3.06,1.82,1.55,2.05-.11,4.48-.65,5.18-2.27,2.89-5.86,3.93-9.15,2.66-1.31-.51-2.35-1.65-2.81-2.71-.27,.4-.51,.8-.72,1.21,2.06,3.55,4.84,3.78,6.76,3.63,3.42-.27,6.46-2.48,7.74-5.64,.68-1.68,.68-3.3-.02-4.81-1.22-2.65-4.42-3.95-7.45-3.04Z"/>
        <path class="cls-7" d="M349.36,150.36c1.53-.65,2.5-2.22,2.36-3.82-.1-1.14-.74-1.83-1.98-2.12-1.12-.26-2.02-.11-2.73,.48-1.65,1.36-1.86,4.6-1.88,5.73,1.91,.31,3.45,.06,4.23-.27Z"/>
        <path class="cls-7" d="M283.09,143.46c.32-.05,.59-.25,.73-.55,.15-.31,.14-.67-.04-.97-1.18-2-2.27-2.28-4.01-2.1-.88,.09-2.59,.77-2.66,1.13,0,0,.02,.04,.08,.1,1.85,1.83,4.66,2.59,5.89,2.39Z"/>
        <path class="cls-1" d="M306.05,339.01c1.64,3.57,9.13,18.43,22.49,23.38,12.66,4.69,23.82,3.42,34.1-3.9,6.48-4.61,14.12-14.09,15.96-24.22-16.08,3.7-36.9,5.54-54.4,5.54-6.69,0-12.89-.27-18.15-.8Z"/>
        <path class="cls-6" d="M318.02,194.95c.29,.03,.56-.16,.66-.46,.94-2.82,2.37-10.08-4.5-16.65-.69-.66-1.59-1.08-2.54-1.17-7.86-.8-35.11-3.14-55.84,.16-.11,.02-11.68,2.25-24.38,10.31,.22,0,.46,0,.72,0,4.83,0,16.79,.29,36.43,2.56,23.79,2.75,45.37,4.86,49.45,5.26Z"/>
        <path class="cls-6" d="M403.08,172.64c-13.78,0-26.2,1.07-31.15,1.55-.98,.1-1.91,.51-2.62,1.18-7.07,6.57-5.6,13.82-4.63,16.64,.11,.31,.38,.5,.7,.47,4.21-.4,26.46-2.51,50.9-5.26,21.31-2.39,33.83-2.58,38.24-2.55-13.08-8.07-24.98-10.29-25.11-10.32-8.27-1.28-17.57-1.71-26.32-1.71Z"/>
        <path class="cls-7" d="M423.87,361.03c-12.78,15.9-28.75,31.84-28.98,32.06-1.81,1.66-3.28,3.22-4.7,4.73-6.79,7.2-11.69,12.4-39.35,14.49-3.04,.23-5.98,.34-8.81,.34-14.16,0-25.57-2.88-34.02-8.6-1.51-1.02-2.87-1.95-4.19-2.97-13.37-10.32-32.85-32.4-45.01-48.07,1.21,6.11,4.53,25.13,4.28,48.33-.28,25.95-5.22,62.56-27.1,89.84,5.19,3.52,32.26,21.05,68.07,29.81,36.43,8.9,89.6,10.26,136.46-33.53-30.62-47.59-19.06-114.44-16.65-126.44Z"/>
        <path class="cls-7" d="M326.45,139.55c.04-.36-1.4-1.5-2.23-1.83-.65-.27-1.23-.44-1.79-.44-.83,0-1.64,.36-2.65,1.3-.25,.23-.37,.58-.32,.92,.05,.33,.25,.6,.55,.74,1.12,.53,4.03,.62,6.33-.61,.09-.05,.11-.08,.11-.08Z"/>
        <path class="cls-7" d="M404.12,136.81c.25-.26-.21-2.04-.65-2.81-.77-1.33-1.53-2.05-3.29-2.05-.24,0-.49,.01-.76,.04-.34,.03-.64,.23-.81,.54-.16,.29-.17,.63-.02,.92,.58,1.1,2.83,2.93,5.39,3.36,.1,.02,.13,0,.13,0Z"/>
        <path class="cls-6" d="M269.7,142.35c-3.03,2.49-4.48,5-4.27,7.48,.28,3.3,3.35,5.82,5.34,7.12-2.27-3.19-3.12-6.07-2.52-8.58,.55-2.35,2.22-3.71,3.14-4.3-.59-.52-1.16-1.09-1.69-1.72Z"/>
        <path class="cls-6" d="M332.82,149.2c-.15,2.57-1.79,5.09-4.88,7.49,2.28-.68,5.94-2.21,7.16-5.29,.91-2.31,.25-5.13-1.94-8.38-.69,.45-1.39,.84-2.11,1.17,.71,.83,1.91,2.6,1.77,5.01Z"/>
        <path class="cls-7" d="M438.2,156.81s-.07,0-.1,0c-2.86,.48-5.98,1.61-6.16,3.32-.02,.19,0,.35,.36,.44,1.57,.39,5.8-1.4,6.45-3,.1-.26-.03-.47-.09-.54-.12-.14-.28-.22-.46-.22Z"/>
        <path class="cls-7" d="M250.38,158.98c2.94,.49,4-1.39,4.38-2.56,.1-.33,.05-.68-.14-.96-.18-.26-.46-.43-.77-.45-.06,0-.12,0-.18,0-1.84,0-3.12,1.82-3.73,2.93-.11,.21-.12,.47,0,.7,.05,.11,.19,.31,.45,.35Z"/>
        <path class="cls-8" d="M657.07,590.76c-8.93-13.78-20.37-25.31-34-34.26-44.82-29.45-68.01-36-124.02-51.82-16.35-4.62-34.87-9.85-57.65-16.67-20.79,19.5-44.54,31.85-70.59,36.7-8.51,1.58-17.27,2.38-26.24,2.38-13.18,0-26.82-1.71-40.78-5.12-37.32-9.13-65.19-27.75-68.88-30.29-27.56,8.89-49.92,15.38-69.67,21.11-52.23,15.16-81,23.51-117.53,51.58-9.35,7.18-17.39,15.69-23.9,25.27-7.72,11.36-15.17,24.6-22.17,39.36l-.59,1.24c10.37,4.46,98.45,27.57,221.76,37.06,112.72,8.68,282.48,7.74,451.42-45.97-.18-.46-.39-.91-.6-1.33-5.27-10.56-10.85-20.4-16.57-29.23Z"/>
        <path class="cls-6" d="M432.06,156.74c-1.45,1.1-2.73,2.82-1.97,4.36,.56,1.14,1.39,1.88,2.46,2.21,2.67,.8,6.04-1.15,6.07-1.17l.85-.5-.09,.98c-.18,1.81-.83,3.18-1.95,4.09-.58,.47-1.22,.76-1.85,.94,1.3,.14,2.8,.04,4.13-.72,1.65-.94,2.75-2.76,3.29-5.38-1.16-2.78-1.5-4.73-1.59-5.36-2.68-2.26-6.71-1.45-9.35,.55Zm7.61,1.2c-.75,1.89-4.62,3.68-6.88,3.68-.27,0-.51-.03-.73-.08-.78-.19-1.19-.76-1.11-1.51,.29-2.67,4.5-3.78,6.99-4.2,.56-.09,1.14,.12,1.5,.57,.36,.44,.45,1.02,.24,1.54Z"/>
        <path class="cls-6" d="M485.32,144.7c1.29-2.93,2.41-5.45,3.06-7.72,.14-.48,13.54-47.92-11.47-65.61l-.25-.18,.04-.3c.02-.12,1.67-12.23-7.22-24.16-8.76-11.75-24.37-19.32-46.39-22.5l-.22-.03-.12-.18c-.07-.1-6.86-9.81-20.47-16.55-12.54-6.22-33.63-11.11-62.81,.89l-.17,.07-.17-.06c-.38-.12-38.15-11.85-61.77,12.83l-.2,.2-.28-.06c-.12-.03-12.13-2.63-25.72,1.08-12.51,3.42-28.96,13.07-36.33,39.6l-.04,.16-.13,.1c-.35,.27-34.7,27.21-14.26,65.61,.12,.29,9.88,24.74,11.09,46.6,.18,3.18,.4,6.88,.79,10.52l4.25,37.31c2.72-.84,5.11-.84,6.2-.78-1.11-11.5-1.67-23.19-1.67-34.73v-.29l.25-.14c.09-.05,9.35-5.43,14.41-14.79,.79-1.46,1.93-2.67,3.32-3.51,1.35-.83,3.5-2.87,3.7-3.99,.04-.22-.02-.3-.04-.33h0c-.08-.11-.15-.2-.23-.3l.8-.6c3.1,4.16,5.9,6.12,8.29,5.79,1.54-.2,2.7-1.34,3.49-2.47-1.05,.75-2.36,1.34-3.71,1.1-1.61-.28-2.91-1.66-3.88-4.1l-.27-.69h.74s4.85,.01,7.46-2.63c1.14-1.15,1.69-2.66,1.66-4.48-.02-1.26-.6-2.35-1.53-2.92-.49-.3-1.43-.51-2.58-.18-1.21,.34-2.95,1.36-4.38,4.21l-.89-.45c1.6-3.18,3.6-4.33,5-4.73,.18-.05,.35-.07,.53-.1v-.02c11.14-3.19,13.05-16.19,13.07-16.32l.5,.07,.49-.09c1.53,8.15,8.65,11.92,13.22,12,2.57,.05,4.49-.69,5.38-2.07,.69-1.05,.72-2.4,.08-3.79-.93-2.03-2.38-3.42-4.18-4.04-1.95-.66-4.31-.37-6.84,.84,.34,1.08,.92,1.91,1.44,2.5,.73-.97,2.97-1.45,3.31-1.48,2.01-.21,3.54,.16,4.97,2.59,.34,.58,.37,1.3,.08,1.91-.29,.6-.84,1.01-1.49,1.11-.17,.03-.35,.04-.55,.04-1.59,0-3.95-.82-5.67-2.25h0c-.05-.03-5.37-3.61-2.57-10.09,.25-.58,.74-1,1.35-1.17,.61-.17,1.26-.05,1.77,.32,3.65,2.63,12.56,8.21,16.56,3.36l.05,.05c-.47-3.47-.19-7.67,2.52-11.25,.17-.26,4.74-6.95,11.13-7.94,3.6-.55,7.06,1.47,8.05,4.72h0c2.09,5.65,5.82,5.79,9.11,5.91,2.05,.08,4,.15,4.99,1.72,1.12,1.77,1.68,3.7,1.62,5.59-.18,5.73-5.37,7.34-5.42,7.35v-.02c-1.29,.55-2.72,.81-4,.81-1.03,0-1.96-.16-2.59-.46-.59-.28-1.01-.83-1.11-1.49-.11-.67,.13-1.35,.62-1.8,2.07-1.92,3.64-1.83,5.5-1.06,.31,.13,2.33,1.22,2.75,2.36,.67-.42,1.46-1.06,2.09-1.99-2.09-1.87-4.27-2.84-6.31-2.76-1.9,.07-3.69,1-5.16,2.67-1.01,1.15-1.37,2.44-1.01,3.65,.47,1.58,2.09,2.83,4.57,3.53,4.39,1.24,12.27-.33,16.08-7.67,.26-.82,.6-1.64,1.05-2.44,.14-.28,3.73-7.55,9.92-9.41,.68-.2,1.36-.31,2.04-.33,3.07-2.27,5.32-5.55,6.7-9.75,.03-.1,.07-.26,.12-.46,.35-1.44,.81-3.02,1.8-3.51,.38-.19,.81-.19,1.23,0,2.54,1.46,4.14,4.16,4.21,7.06,.1,4.1,1.03,6.25,1.61,7.2,.37-.81,.8-1.58,1.29-2.3,2.71-3.97,8.73-7.11,16.76-2.88,.73,.39,1.37,.86,1.9,1.4,2.18,.59,3.56-.88,4.66-2.08,.7-.75,1.25-1.35,1.92-1.2,.47,.1,.75,.54,.93,.99h0c3.12,9.36,16.89,10.41,19.62,10.53,.29,.01,.54,.16,.71,.39,.17,.24,.21,.53,.13,.81-1.05,3.33-2.74,5.58-5.03,6.69-1.21,.58-2.39,.76-3.39,.76-1.5,0-2.57-.4-2.64-.42h0c-2.44-.63-4.72-2.35-5.45-3.74-.3-.58-.29-1.28,.02-1.86,.32-.6,.92-.99,1.59-1.06,2.81-.27,4,.76,5.01,2.5,.17,.29,1.1,2.37,.75,3.53,.79,.07,1.81,.04,2.86-.3-.52-2.75-1.66-4.83-3.33-6.01-1.55-1.1-3.54-1.45-5.72-1.01-1.37,.27-2.38,1.21-2.77,2.55-.53,1.81,.15,3.86,1.83,5.48,8.89,8.6,19-.93,19.5-1.41,.45-.63,1.04-1.12,1.74-1.41,.94-.39,2.21-.3,3.38,.25,1.29,.6,3.03,2.01,4.11,5.24h.01c1.92,6.45,8.94,13.49,9.01,13.56l-.05,.05c2.29-.48,4.71-.13,6.56,1.53l-.33,.37,.5-.05s.24,2.2,1.67,5.53h0s0,0,0,0c1.46,3.39,4.15,8,9.09,12.85,10.02,9.82,12.93,14.98,13.05,15.19l.06,.11v4.13c0,7.83-.35,15.74-1.04,23.53,1.47-.01,4.21,.19,7.05,1.56,.39-5.91,3.06-44.42,8.13-61.4,1.45-4.84,3.29-9.01,4.92-12.69Zm-236.25,12.75c1.28-2.34,2.99-3.56,4.84-3.44,.62,.04,1.17,.36,1.53,.88,.37,.54,.47,1.21,.27,1.83-.34,1.07-1.42,3.34-4.39,3.34-.34,0-.71-.03-1.11-.1-.51-.09-.94-.42-1.18-.9-.25-.52-.24-1.12,.03-1.61Z"/>
        <path class="cls-7" d="M222.83,222.56c-1.63-.1-8.06-.14-12.58,4.85-5.21,5.74-6.22,15.91-3,30.23,1.8,7.99,4.71,15.95,8.65,23.66,3.97,7.76,8.99,18.22,10.35,23.95,2.19,9.25,9.48,16.7,16.48,17.02-4.49-16.57-10.04-42.19-14.05-61.5-2.62-12.59-4.58-25.44-5.84-38.22Z"/>
        <path class="cls-7" d="M460.81,300.93c1.31-5.71,6.08-16.14,9.85-23.88,3.75-7.69,6.53-15.63,8.26-23.61,3.16-14.51,2.21-24.77-2.82-30.5-3.81-4.34-8.92-4.74-10.98-4.7-.89,9.7-2.32,19.44-4.27,28.96-4.05,19.78-10.33,49.24-16.01,70.65,6.58-.31,13.93-7.99,15.96-16.91Z"/>
        <path class="cls-6" d="M383.87,120.66c-2.54-1.34-4.86-1.89-6.91-1.89-3.96,0-6.92,2.05-8.55,4.45-1.98,2.9-2.93,6.65-2.69,10.57,.3,4.77,1.86,8.22,4.63,10.26,3.14,2.3,7.25,2.34,10.01,2.01-2.46-.49-5.7-1.64-8-4.39-2.3-2.74-3.18-6.5-2.61-11.19,.36-2.98,1.49-5.14,3.34-6.43,2.2-1.53,5.39-1.82,9.49-.85,.31,.11,1.59,.63,1.53,1.57-.05,.83-1.07,1.44-3.31,1.97-4.76,1.13-7.34-.16-8.28-.82-.69,.84-1.2,1.91-1.52,3.2,1.87,.59,9.61,2.74,13.88-.49,2.08-1.57,2.64-3.36,1.67-5.33-.53-1.08-1.46-1.99-2.68-2.64Z"/>
        <path class="cls-6" d="M405.74,142.25c.12,1.05,.13,3.27-1.41,5.22-1.58,2-4.33,3.13-8.17,3.35,2.45,.68,6.18,1.05,8.92-.77,2.23-1.48,3.42-4.18,3.57-8.02-.8,.15-1.62,.24-2.46,.24-.15,0-.3-.01-.44-.02Z"/>
        <path class="cls-7" d="M420.83,138.61s-.06,0-.09,0c-.28,0-.54,.12-.74,.32-.24,.25-.34,.59-.29,.93,.18,1.21,.93,3.22,3.87,3.22h.05c.26,0,.42-.17,.5-.28,.14-.2,.18-.47,.1-.69-.44-1.23-1.46-3.32-3.39-3.5Z"/>
        <path class="cls-7" d="M380.57,125.76c2.4-.57,2.54-1.05,2.54-1.06-.02-.11-.41-.39-.83-.55-3.75-.88-6.68-.65-8.63,.71-.14,.1-.28,.21-.42,.32,.88,.55,3.18,1.56,7.33,.57Z"/>
        <path class="cls-6" d="M425.82,140.94c-.97-3.05-2.53-4.32-3.66-4.85-1.09-.51-2.04-.45-2.58-.23-1.01,.42-1.75,1.4-1.97,2.64-.32,1.79-.01,3.37,.93,4.68,2.15,3.01,6.9,3.77,6.95,3.78l.73,.11-.38,.64c-1.34,2.26-2.85,3.42-4.48,3.44-1.4,0-2.57-.78-3.49-1.68,.6,1.24,1.56,2.55,3.05,2.99,2.26,.67,5.21-.73,8.79-4.12-1.57-2.24-3.08-4.83-3.89-7.4h0Zm-.87,2.44c-.31,.44-.79,.7-1.31,.7h-.06c-3.82,0-4.67-2.84-4.85-4.07-.1-.65,.1-1.29,.55-1.77,.43-.46,1.03-.69,1.65-.63,1.84,.18,3.34,1.66,4.24,4.16,.19,.53,.11,1.13-.22,1.6Z"/>
        <path class="cls-6" d="M466.26,189.57l-.06-.11c-.12-.21-3.03-5.37-13.05-15.19-4.95-4.85-7.64-9.46-9.09-12.85,0,0,0,0,0,0h0c-1.43-3.33-1.67-5.49-1.67-5.53l-.5,.05,.33-.37c-1.85-1.66-4.27-2-6.56-1.53l.05-.05c-.07-.07-7.09-7.11-9.01-13.57h-.01c-1.08-3.23-2.82-4.63-4.11-5.24-1.17-.55-2.44-.64-3.38-.25-.7,.29-1.29,.78-1.74,1.41-.5,.49-10.61,10.01-19.5,1.41-1.68-1.62-2.36-3.67-1.83-5.48,.4-1.35,1.41-2.28,2.77-2.55,2.19-.44,4.17-.09,5.72,1.01,1.68,1.19,2.82,3.26,3.33,6.01-1.06,.35-2.07,.38-2.86,.3,.35-1.16-.58-3.24-.75-3.53-1.01-1.75-2.2-2.77-5.01-2.5-.67,.07-1.27,.46-1.59,1.06-.32,.58-.33,1.28-.02,1.86,.72,1.39,3.01,3.11,5.45,3.73h0c.07,.04,1.15,.44,2.64,.44,1,0,2.19-.18,3.39-.76,2.29-1.11,3.98-3.36,5.03-6.69,.09-.28,.04-.57-.13-.81-.17-.24-.42-.38-.71-.39-2.73-.12-16.5-1.17-19.62-10.53h0c-.19-.45-.46-.88-.93-.99-.67-.15-1.22,.45-1.92,1.2-1.1,1.19-2.48,2.67-4.66,2.08-.53-.54-1.17-1.02-1.9-1.4-8.03-4.23-14.04-1.1-16.76,2.88-.49,.72-.92,1.49-1.29,2.3-.57-.95-1.5-3.1-1.61-7.2-.07-2.9-1.67-5.6-4.21-7.06-.42-.19-.85-.19-1.23,0-.99,.48-1.45,2.06-1.8,3.51-.05,.2-.09,.36-.12,.46-1.38,4.2-3.63,7.47-6.7,9.75-.68,.02-1.36,.12-2.04,.33-6.18,1.86-9.78,9.12-9.92,9.41-.45,.81-.79,1.62-1.05,2.44-3.81,7.34-11.69,8.91-16.08,7.67-2.48-.7-4.1-1.95-4.57-3.53-.36-1.21,0-2.5,1.01-3.65,1.47-1.68,3.26-2.6,5.16-2.67,2.03-.08,4.22,.88,6.31,2.76-.63,.93-1.42,1.57-2.09,1.99-.42-1.14-2.43-2.23-2.75-2.36-1.87-.77-3.44-.87-5.5,1.06-.5,.46-.73,1.13-.62,1.8,.1,.66,.52,1.21,1.11,1.49,.63,.3,1.56,.46,2.59,.46,1.28,0,2.72-.27,4-.81v.02c.06-.02,5.25-1.63,5.43-7.35,.06-1.89-.5-3.83-1.62-5.59-1-1.58-2.94-1.65-4.99-1.72-3.29-.12-7.02-.26-9.11-5.91h0c-1-3.25-4.45-5.27-8.05-4.72-6.38,.99-10.95,7.68-11.13,7.94-2.71,3.58-2.99,7.78-2.52,11.25l-.05-.05c-4,4.85-12.91-.74-16.56-3.36-.51-.37-1.16-.48-1.77-.32-.61,.17-1.1,.59-1.35,1.17-2.8,6.48,2.51,10.06,2.57,10.09h0c1.72,1.43,4.08,2.25,5.67,2.25,.2,0,.38-.01,.55-.04,.65-.1,1.2-.51,1.49-1.11,.29-.61,.26-1.33-.08-1.91-1.43-2.43-2.96-2.8-4.97-2.59-.34,.03-2.59,.51-3.31,1.48-.53-.59-1.1-1.43-1.44-2.5,2.54-1.2,4.89-1.5,6.84-.84,1.8,.61,3.25,2.01,4.18,4.04,.64,1.39,.61,2.73-.08,3.79-.9,1.38-2.82,2.12-5.38,2.07-4.57-.08-11.69-3.85-13.22-12l-.49,.09-.5-.07c-.02,.13-1.93,13.13-13.07,16.32v.02c-.17,.03-.35,.05-.52,.1-1.4,.4-3.4,1.54-5,4.73l.89,.45c1.44-2.86,3.18-3.87,4.38-4.21,1.15-.33,2.09-.12,2.58,.18,.93,.57,1.5,1.66,1.53,2.92,.04,1.82-.52,3.33-1.66,4.48-2.61,2.64-7.46,2.64-7.46,2.64h-.74s.27,.68,.27,.68c.97,2.44,2.27,3.82,3.88,4.1,1.35,.23,2.66-.36,3.71-1.1-.79,1.13-1.94,2.27-3.49,2.47-2.39,.32-5.19-1.63-8.29-5.79l-.8,.6c.08,.1,.15,.19,.23,.29h0s.08,.11,.04,.33c-.2,1.13-2.35,3.17-3.7,3.99-1.38,.84-2.53,2.06-3.32,3.51-5.06,9.36-14.32,14.74-14.41,14.79l-.25,.14v.29c0,11.55,.56,23.23,1.67,34.73,.05,0,.11,0,.15,0l.84-.08c-1.1-11.38-1.66-22.95-1.67-34.38,1.55-.95,9.82-6.29,14.54-15.03,.7-1.3,1.72-2.38,2.96-3.13,1.13-.69,3.31-2.54,3.98-4.11,2.68,3.23,5.21,4.87,7.52,4.87,.21,0,.42-.01,.63-.04,3.28-.43,5-4.15,5.46-5.28,.1-.26,0-.55-.23-.69l-.44-.21-.28,.32c-.59,.68-2.68,2.87-4.7,2.52-1.1-.19-2.06-1.14-2.84-2.83,1.55-.11,5.16-.6,7.43-2.9,1.33-1.35,1.99-3.1,1.95-5.2-.03-1.6-.78-3-2.01-3.75-.14-.08-.3-.14-.45-.2,7.38-3.2,10.23-10.69,11.21-14.33,.55,1.7,1.33,3.19,2.28,4.47-3.31,2.71-4.88,5.52-4.64,8.35,.4,4.67,5.57,7.83,7.15,8.68,.11,.06,.22,.09,.34,.09,.2,0,.4-.09,.54-.26,.22-.26,.22-.63,0-.9-2.74-3.41-3.83-6.41-3.25-8.92,.53-2.28,2.35-3.5,2.98-3.87,2.71,2.07,5.82,3.08,8.25,3.12,.08,0,.15,0,.23,0,2.82,0,4.95-.89,6.01-2.52,.87-1.33,.93-3.06,.15-4.75-1.05-2.29-2.69-3.87-4.76-4.57-2.15-.73-4.68-.45-7.38,.78-.18-1.2-.05-2.62,.66-4.27,.13-.3,.38-.52,.7-.6,.32-.09,.65-.03,.92,.16,3.73,2.69,12.67,8.25,17.38,3.75,.57,2.98,1.59,5.23,1.83,5.72-.06,1.22,.03,2.46,.32,3.67,.6,2.46,1.93,4.32,3.95,5.52,.51,.3,1.33,.6,1.63,.71,.97,.36,1.99,.53,3.01,.53,1.85,0,3.69-.57,5.19-1.67,2.23-1.63,3.39-4.11,3.27-6.99-.03-.65-.08-1.17-.11-1.45s-.27-.5-.56-.5l-.49,.04-.06,.43c-.32,2.3-1.88,4.23-4.17,5.16-2.08,.84-4.35,.66-5.78-.46-.74-.58-1.25-1.38-1.52-2.36,4.56,1.88,7.47,.16,8.29-.46,1.85-1.37,2.87-3.59,2.74-5.94-.14-2.39-1.44-4.52-3.48-5.69-.3-.17-.5-.26-.5-.26-3.23-1.55-6.27-.79-8.78,2.17-.61,.72-1.12,1.5-1.55,2.33-.39-2.09-.73-6.21,1.42-10.03,1.36,2.8,3.57,4.28,6.75,4.48,3.79,.23,7.48-1.73,9.38-5,.54-.93,.86-1.87,.98-2.81,2.45,3.89,6.07,4.03,8.82,4.13,1.94,.07,3.47,.13,4.19,1.26,1.01,1.6,1.52,3.34,1.47,5.03-.03,1.13-.29,2.06-.66,2.85-2.24-1.95-4.62-2.94-6.84-2.86-2.18,.08-4.21,1.12-5.87,3.01-1.22,1.39-1.67,3.07-1.21,4.59,.57,1.92,2.44,3.41,5.25,4.2,.95,.27,2.04,.41,3.22,.41,1.74,0,3.67-.32,5.58-1.04,.49,.52,1.9,2.2,1.75,4.56-.16,2.57-2.07,5.13-5.67,7.61-.28,.19-.38,.55-.25,.86,.11,.27,.37,.43,.64,.43,.05,0,.1,0,.15-.02,1.76-.37,7.62-1.91,9.33-6.27,1.04-2.64,.34-5.77-2.05-9.32,1.12-.85,2.17-1.88,3.1-3.12-.59,6.28,3.08,12.05,3.61,12.84,.11,1.22,.37,2.43,.83,3.59,.94,2.35,2.52,4.01,4.68,4.92,.55,.23,1.4,.41,1.71,.48,.6,.13,1.21,.19,1.82,.19,2.27,0,4.51-.88,6.14-2.46,1.98-1.92,2.79-4.54,2.27-7.38-.12-.64-.24-1.14-.31-1.43-.07-.28-.34-.46-.63-.41l-.48,.11v.44c0,2.32-1.27,4.45-3.42,5.69-1.94,1.12-4.21,1.26-5.79,.35-.82-.47-1.43-1.19-1.83-2.13,4.78,1.23,7.42-.88,8.15-1.6,1.64-1.61,2.35-3.96,1.88-6.26-.47-2.35-2.05-4.27-4.24-5.15-.32-.13-.53-.19-.53-.19-3.41-1.08-6.32,.08-8.39,3.37-.51,.8-.91,1.66-1.22,2.54-.7-2.01-1.66-6.07,0-10.19,1.73,2.62,4.13,3.79,7.33,3.54,3.79-.29,7.17-2.75,8.59-6.26,.79-1.95,.78-3.84-.03-5.61-.95-2.06-2.9-3.42-5.14-3.8,2.79-2.35,4.87-5.55,6.18-9.54,.04-.11,.08-.3,.14-.54,.19-.76,.62-2.53,1.27-2.85,.08-.04,.19-.07,.34,0,2.2,1.27,3.6,3.64,3.67,6.2,.13,5.28,1.59,7.57,2.16,8.28-.89,2.39-1.29,5.05-1.12,7.79,.32,5.08,2.01,8.78,5.04,11,2.51,1.84,5.56,2.35,8.16,2.35,2.33,0,4.3-.41,5.21-.63,.29-.07,.48-.34,.46-.64-.03-.3-.26-.53-.57-.54-1.96-.1-6.86-.73-9.9-4.36-2.12-2.52-2.92-6.03-2.38-10.43,.02-.17,.04-.33,.07-.49,2.17,.69,10.05,2.82,14.68-.68,3.29-2.49,2.64-5.18,1.96-6.56-.09-.19-.21-.36-.33-.54,.03,0,.06,0,.09,0,2.06,0,3.45-1.49,4.42-2.54,.34-.37,.81-.88,.96-.91,0,0,.15,.09,.34,.68h0c3.5,9.54,17.25,10.72,20.29,10.86-.94,2.93-2.4,4.91-4.33,5.92-.59-2.91-1.85-5.12-3.7-6.43-1.79-1.26-4.03-1.67-6.49-1.18-1.72,.34-3.04,1.56-3.54,3.25-.64,2.18,.14,4.6,2.09,6.49,2.42,2.34,4.97,3.41,7.46,3.71,.11,.77,.24,2.9-1.18,4.69-1.58,1.99-4.55,3-8.84,3-.06,0-.1,0-.17,0-.34,0-.62,.23-.69,.57-.07,.33,.1,.66,.41,.79,1.28,.54,3.5,1.15,5.87,1.15,1.88,0,3.85-.38,5.52-1.49,2.56-1.7,3.9-4.76,4.02-9.07,2.8-.71,5.25-2.13,6.97-3.44-.36,2.04,.02,3.86,1.11,5.39,1.88,2.63,5.36,3.69,6.88,4.04-1.04,1.54-2.13,2.33-3.25,2.34h-.03c-2.02,0-3.73-2.47-4.2-3.23-.15-.24-.44-.33-.69-.22l-.43,.23,.09,.41c.27,1.19,1.38,5.13,4.55,6.08,.46,.14,.93,.2,1.43,.2,2.32,0,5.09-1.51,8.23-4.46,1.8,2.45,3.57,4.36,4.33,5.15-1.15,.37-2.24,.94-3.17,1.64-2.25,1.71-3.12,3.85-2.26,5.6,.69,1.4,1.72,2.32,3.08,2.72,2.2,.66,4.67-.21,5.96-.8-.25,1.07-.73,1.9-1.43,2.47-1.28,1.04-3.02,1.03-3.95,.92-.29-.02-.55,.16-.62,.44l-.06,.52,.42,.15c.79,.29,2.28,.73,3.96,.73,1.19,0,2.48-.23,3.66-.9,1.62-.92,2.77-2.54,3.45-4.78,1.59,3.32,4.26,7.52,8.79,11.96,9.11,8.93,12.34,14.06,12.81,14.86v3.87c0,7.83-.35,15.75-1.04,23.54l.23,.02c.19-.01,.45-.03,.78-.03,.69-7.79,1.04-15.7,1.04-23.53v-4.13Zm-67.67-56.12c-.15-.29-.14-.62,.02-.92,.17-.3,.47-.51,.81-.54,.27-.03,.53-.04,.76-.04,1.76,0,2.52,.72,3.29,2.05,.45,.77,.9,2.55,.65,2.81,0,0-.04,.01-.13,0-2.57-.43-4.82-2.26-5.39-3.36Zm-78.58,6.79c-.29-.14-.49-.41-.55-.74-.05-.34,.06-.69,.32-.92,1.01-.94,1.82-1.3,2.65-1.3,.56,0,1.14,.17,1.79,.44,.82,.34,2.27,1.48,2.23,1.83,0,0-.02,.03-.11,.08-2.3,1.22-5.2,1.13-6.33,.61Zm-51.76,8.14c-.59,2.51,.26,5.39,2.52,8.58-1.99-1.3-5.06-3.82-5.34-7.12-.21-2.48,1.24-4.99,4.27-7.48,.53,.63,1.09,1.2,1.69,1.72-.92,.59-2.58,1.95-3.14,4.3Zm11.53-8.54c1.73-.18,2.83,.1,4.01,2.1,.17,.29,.19,.66,.04,.97-.14,.3-.41,.5-.73,.55-1.22,.19-4.03-.56-5.89-2.39-.06-.06-.08-.1-.08-.1,.07-.36,1.77-1.04,2.66-1.13Zm20.14-5.15c1.46-1.73,3.07-2.59,4.81-2.59,.9,0,1.83,.23,2.79,.69,.01,0,.17,.07,.41,.21,1.75,1,2.86,2.83,2.98,4.88,.12,2.01-.76,3.91-2.33,5.08-.75,.55-3.47,2.15-7.89,.08-.03-.43-.03-.88,.01-1.35,1.68,.5,3.4,.61,4.61,.28,2.01-.54,3.49-2.33,3.61-4.36,.06-1.1-.29-2.58-2.3-3.37-1.37-.53-2.59-.47-3.65,.17-2.64,1.61-3.16,6.36-3.18,6.54-.51,3.61,.81,5.49,2.01,6.42,1.74,1.36,4.33,1.58,6.77,.59,1.78-.72,3.17-1.97,4-3.53-.18,2.09-1.16,3.88-2.84,5.1-2.06,1.51-4.85,1.89-7.3,1-.66-.24-1.15-.45-1.43-.62-1.78-1.06-2.96-2.71-3.49-4.9-.89-3.62,.02-7.48,2.42-10.32Zm.91,5.99c.18-1.12,.83-4.3,2.66-5.41,.79-.48,1.69-.51,2.77-.09,1.19,.46,1.73,1.24,1.67,2.38-.09,1.6-1.27,3.02-2.87,3.45-.81,.22-2.38,.25-4.22-.32Zm13.46-15.36c-1.71,2.95-5,4.73-8.45,4.51-1.92-.12-4.63-.73-6.18-4.5,.26-.37,.55-.74,.87-1.1,.31,1.11,1.18,2.37,2.4,3.04,3.08,1.72,6.79,1.18,9.43-1.36,.64-.61,2.62-2.79,1.37-5.04-.64-1.15-1.58-1.9-2.78-2.22-2.86-.76-6.21,1.2-6.32,1.26-10.83,5.42-8.13,16.45-7.7,17.98-.2,.55-.35,1.11-.47,1.68-1.15-3.16-2.98-10.21,1.06-15.53,.04-.07,4.52-6.62,10.47-7.53,3.13-.48,6.11,1.26,6.95,4.05,.48,1.59,.26,3.19-.65,4.77Zm-12.89-1.99c.99-.93,2.21-1.79,3.71-2.54,.03-.02,3.13-1.83,5.58-1.17,.94,.25,1.65,.82,2.16,1.75,.91,1.62-.68,3.34-1.19,3.83-2.32,2.24-5.56,2.71-8.25,1.21-1.3-.72-2.06-2.27-2.01-3.07Zm33.71,28.08c-1.21,3.08-4.87,4.61-7.16,5.29,3.08-2.4,4.72-4.92,4.88-7.49,.14-2.41-1.06-4.18-1.77-5.01,.72-.33,1.42-.72,2.11-1.17,2.19,3.25,2.85,6.07,1.94,8.38Zm8.31-6.58c1.38-2.19,3.11-3.29,5.16-3.29,.67,0,1.37,.12,2.1,.35,.01,0,.18,.05,.44,.15,1.87,.75,3.23,2.4,3.63,4.42,.4,1.98-.21,3.98-1.61,5.35-.66,.65-3.15,2.62-7.8,1.18-.09-.42-.15-.87-.18-1.34,1.73,.26,3.45,.13,4.6-.36,1.92-.82,3.14-2.8,2.97-4.82-.09-1.1-.64-2.52-2.75-3.01-1.43-.34-2.64-.11-3.59,.68-2.39,1.96-2.25,6.73-2.24,6.92,0,3.65,1.57,5.32,2.88,6.08,1.91,1.1,4.51,.96,6.79-.35,1.66-.96,2.87-2.39,3.47-4.05,.12,2.09-.61,4-2.11,5.45-1.83,1.78-4.54,2.54-7.09,2-.69-.15-1.2-.29-1.5-.42-1.91-.8-3.3-2.27-4.14-4.37-1.38-3.46-1.02-7.41,.96-10.56Zm1.73,5.8c.02-1.13,.22-4.37,1.88-5.73,.71-.59,1.61-.74,2.73-.48,1.24,.29,1.89,.99,1.98,2.12,.13,1.6-.84,3.17-2.36,3.82-.77,.33-2.32,.58-4.23,.27Zm11.18-21.89c.69,1.51,.7,3.13,.02,4.81-1.28,3.16-4.32,5.37-7.74,5.64-1.92,.15-4.7-.08-6.76-3.63,.21-.4,.45-.81,.72-1.21,.46,1.06,1.5,2.2,2.81,2.71,3.29,1.27,6.89,.23,9.15-2.66,.55-.7,2.21-3.13,.65-5.18-.8-1.05-1.83-1.67-3.06-1.82-2.94-.37-5.98,2.05-6.08,2.13-9.97,6.87-5.77,17.42-5.12,18.88-.12,.57-.19,1.15-.23,1.73-1.58-2.97-4.37-9.69-1.11-15.53,.04-.07,3.56-7.18,9.32-8.91,3.02-.91,6.23,.4,7.45,3.04Zm-13.02,4.61c.86-1.05,1.95-2.06,3.32-3.01,.03-.02,2.85-2.25,5.36-1.94,.97,.12,1.75,.59,2.38,1.43,1.12,1.48-.21,3.4-.64,3.96-1.99,2.54-5.13,3.45-8,2.34-1.4-.54-2.37-1.99-2.42-2.78Zm41.59-4.71c-4.27,3.23-12.01,1.08-13.88,.49,.32-1.3,.82-2.37,1.52-3.2,.94,.66,3.52,1.95,8.28,.82,2.24-.53,3.26-1.14,3.31-1.97,.06-.94-1.22-1.46-1.53-1.57-4.1-.97-7.29-.68-9.49,.85-1.85,1.29-2.97,3.45-3.34,6.43-.57,4.68,.3,8.45,2.61,11.19,2.3,2.74,5.55,3.9,8,4.39-2.76,.33-6.87,.29-10.01-2.01-2.77-2.03-4.33-5.48-4.63-10.26-.25-3.92,.71-7.67,2.69-10.57,1.63-2.39,4.59-4.45,8.55-4.45,2.05,0,4.37,.55,6.91,1.89,1.22,.65,2.15,1.56,2.68,2.64,.97,1.96,.4,3.76-1.67,5.33Zm-11.64-3.44c.13-.11,.27-.22,.42-.32,1.96-1.36,4.88-1.6,8.63-.71,.42,.16,.8,.44,.83,.55,0,0-.14,.49-2.54,1.06-4.14,.98-6.45-.02-7.33-.57Zm31.84,24.86c-2.75,1.82-6.47,1.46-8.92,.77,3.84-.22,6.59-1.34,8.17-3.35,1.54-1.95,1.53-4.17,1.41-5.22,.15,0,.3,.02,.44,.02,.84,0,1.66-.09,2.46-.24-.15,3.83-1.34,6.54-3.57,8.02Zm15.85,2.4c-1.49-.44-2.45-1.75-3.05-2.99,.92,.9,2.09,1.68,3.49,1.68,1.63-.02,3.14-1.18,4.48-3.44l.38-.64-.73-.11s-4.8-.77-6.95-3.78c-.94-1.32-1.25-2.89-.93-4.68,.22-1.24,.96-2.22,1.97-2.64,.53-.22,1.49-.27,2.58,.23,1.14,.53,2.7,1.8,3.66,4.85h0c.81,2.57,2.32,5.16,3.89,7.39-3.57,3.39-6.53,4.79-8.79,4.12Zm18.79,14.48c-1.33,.76-2.83,.86-4.13,.72,.63-.18,1.27-.47,1.85-.94,1.11-.9,1.77-2.28,1.95-4.09l.09-.98-.85,.5s-3.41,1.96-6.07,1.17c-1.07-.32-1.9-1.07-2.46-2.21-.76-1.54,.52-3.26,1.97-4.36,2.64-2,6.67-2.81,9.35-.55,.08,.63,.43,2.58,1.59,5.36-.54,2.63-1.64,4.44-3.29,5.38Z"/>
        <path class="cls-6" d="M425.43,230.56c-6.44-5.54-22.5-17.74-32.39-11.48-4.11,2.6-6.55,5.76-7.25,9.37-1.01,5.22,1.99,9.46,2.11,9.62,.23,.34,3.94,5.52,13.73,5.52,5.57,0,13.11-1.68,23.09-6.88h0c1.1-.58,1.85-1.66,1.99-2.89,.14-1.23-.33-2.45-1.28-3.26Z"/>
        <path class="cls-6" d="M302.93,238.08c.13-.18,3.12-4.41,2.11-9.63-.7-3.61-3.14-6.77-7.25-9.37-9.53-6.03-24.38,4.6-32.39,11.48-.94,.81-1.42,2.03-1.28,3.26,.14,1.24,.89,2.32,1.99,2.89h0c9.99,5.2,17.52,6.88,23.09,6.88,9.78,0,13.49-5.17,13.72-5.51Z"/>
        <path class="cls-2" d="M363.17,282.81c-8.53-31.28-12.55-64.72-12.59-65.05l-.99,.12c.04,.33,4.06,33.84,12.61,65.2l.96-.26Z"/>
        <path class="cls-2" d="M334.5,219.58l-1,.02c0,.32,.5,31.96-8.02,63.21l.96,.26c8.56-31.39,8.06-63.17,8.06-63.49Z"/>
        <path class="cls-2" d="M319.54,298.48c-.03,.2-.63,4.93,2.19,8.64,1.7,2.23,4.28,3.59,7.65,4.04l.13-.99c-3.09-.41-5.44-1.64-6.98-3.64-2.58-3.37-2.01-7.86-2-7.9l-.99-.13Z"/>
        <path class="cls-2" d="M358.24,310.77l.24,.97c.09-.02,9.16-2.39,8.54-12.28l-1,.06c.57,9.05-7.44,11.17-7.78,11.25Z"/>
        <path class="cls-2" d="M328.25,306.47l.11,.99s.37-.03,.95,0c.24,.17,3.39,2.37,6.41,2.37,.02,0,.03,0,.05,0,.57,.41,1.15,.88,1.73,1.43,.67,.64,1.28,1.28,1.67,1.74,1.42,1.68,3.42,2.68,5.36,2.68h.01c2.12,0,4.12-1.1,5.93-3.27,1.38-1.64,2.63-2.86,3.76-3.77,.79-.15,3.73-.82,5.65-2.5,.74,0,1.13,.18,1.14,.19l.23-.45,.23-.44c-.19-.1-4.59-2.26-11.78,6.33-1.61,1.93-3.35,2.91-5.16,2.91h0c-1.65,0-3.36-.87-4.59-2.33-.58-.7-1.42-1.51-1.75-1.82-4.81-4.6-9.74-4.09-9.94-4.07Z"/>
        <path class="cls-6" d="M212.29,185.02c-.39-3.63-.62-7.33-.79-10.52-1.22-21.86-10.97-46.31-11.09-46.6-20.43-38.4,13.91-65.34,14.26-65.61l.13-.1,.04-.16c7.37-26.53,23.83-36.18,36.33-39.6,13.58-3.72,25.6-1.11,25.72-1.08l.28,.06,.2-.2c23.62-24.68,61.39-12.95,61.77-12.83l.17,.06,.17-.07c29.18-12,50.27-7.11,62.81-.89,13.6,6.74,20.4,16.46,20.47,16.55l.12,.18,.22,.03c22.03,3.18,37.63,10.75,46.39,22.5,8.9,11.93,7.24,24.04,7.22,24.16l-.04,.3,.25,.18c25.01,17.69,11.61,65.13,11.47,65.61-.66,2.26-1.77,4.79-3.06,7.72-1.63,3.68-3.47,7.85-4.92,12.69-5.07,16.98-7.74,55.49-8.13,61.4,.32,.16,.65,.33,.97,.51,.25-3.97,2.92-44.23,8.12-61.62,1.43-4.78,3.26-8.92,4.87-12.58,1.31-2.96,2.44-5.52,3.11-7.84,.14-.48,13.65-48.3-11.61-66.53,.2-2,.91-13.38-7.43-24.58-8.89-11.94-24.66-19.64-46.86-22.88-1.01-1.38-7.89-10.33-20.67-16.68-12.71-6.32-34.05-11.3-63.52,.77-2.87-.86-39.2-11.06-62.43,12.95-1.9-.37-13.22-2.31-25.88,1.14-12.75,3.48-29.5,13.27-37.03,40.15-2.37,1.91-34.59,28.84-14.43,66.72,.1,.24,9.79,24.54,11,46.23,.18,3.2,.4,6.91,.8,10.57l4.27,37.53c.33-.12,.65-.24,.97-.33l-4.25-37.31Z"/>
        <path class="cls-6" d="M429.56,173.37c-21.43-3.32-49.61-.97-57.73-.17-1.19,.12-2.33,.63-3.21,1.44-7.71,7.16-5.7,15.35-4.9,17.69,.24,.69,.87,1.15,1.58,1.15,.05,0,.1,0,.16,0,4.21-.4,26.46-2.52,50.92-5.26,26.92-3.02,39.76-2.52,39.88-2.52l1.83,.08-1.54-1c-13.82-8.95-26.85-11.39-26.99-11.41Zm-13.3,13.86c-24.44,2.74-46.69,4.86-50.9,5.26-.31,.03-.59-.16-.7-.47-.96-2.81-2.44-10.07,4.63-16.64,.72-.66,1.65-1.08,2.62-1.18,4.95-.49,17.37-1.55,31.15-1.55,8.75,0,18.04,.43,26.32,1.71,.12,.02,12.03,2.25,25.11,10.32-4.41-.03-16.93,.16-38.24,2.55Z"/>
        <path class="cls-6" d="M317.93,195.94c.05,0,.1,0,.16,0,.69,0,1.32-.46,1.55-1.15,.78-2.34,2.73-10.52-4.76-17.69-.85-.82-1.96-1.33-3.13-1.45-7.89-.8-35.25-3.15-56.11,.17-.13,.02-12.78,2.46-26.22,11.42l-1.49,.99,1.79-.08c.12,0,12.6-.5,38.74,2.52,23.8,2.75,45.38,4.86,49.47,5.26Zm-86.5-8.81c12.7-8.06,24.27-10.29,24.38-10.31,20.72-3.3,47.98-.96,55.84-.16,.94,.1,1.84,.51,2.54,1.17,6.88,6.57,5.44,13.83,4.5,16.65-.1,.31-.37,.49-.66,.46-4.08-.4-25.65-2.51-49.45-5.26-19.63-2.27-31.6-2.56-36.43-2.56-.26,0-.5,0-.72,0Z"/>
        <path class="cls-2" d="M235.05,490.81l.76,.61c.06-.08,.12-.15,.18-.23,21.89-27.28,26.83-63.89,27.1-89.84,.25-23.2-3.08-42.22-4.28-48.33,12.16,15.67,31.64,37.75,45.01,48.07,1.33,1.02,2.68,1.95,4.19,2.97,8.45,5.72,19.86,8.6,34.02,8.6,2.83,0,5.77-.12,8.81-.34,27.66-2.09,32.57-7.29,39.35-14.49,1.42-1.51,2.9-3.07,4.7-4.73,.23-.23,16.2-16.16,28.98-32.06-2.41,11.99-13.98,78.85,16.65,126.44,.24-.22,.48-.44,.72-.67l.12,.13c-33.35-51.83-16.29-126.8-16.12-127.56h-.04c4.85-6.16,9.14-12.23,11.73-17.29,2.15-4.2,4.82-12.68,7.64-23.23,7.19-.09,15.01-8.08,17.21-17.71,1.29-5.62,6.03-15.97,9.78-23.67,3.78-7.76,6.59-15.78,8.34-23.84,3.23-14.84,2.21-25.39-3.04-31.38-1.13-1.29-2.37-2.25-3.62-2.97-.32-.19-.65-.36-.97-.51-2.84-1.37-5.57-1.57-7.05-1.56-.33,0-.59,.01-.78,.03l-.23-.02c-.88,9.96-2.35,19.97-4.35,29.75-6.12,29.92-17.35,82-23.84,94.64-9.45,18.44-41.52,50.43-41.83,50.74-1.82,1.67-3.31,3.25-4.74,4.77-6.63,7.03-11.42,12.12-38.7,14.18-18.05,1.37-32.25-1.35-42.19-8.08-1.5-1.01-2.84-1.93-4.14-2.94-16.23-12.53-41.17-42.38-50.58-55.57-4.08-5.73-7.14-12.07-9.08-18.84-4.64-16.17-10.78-44.44-15.11-65.31-2.68-12.88-4.67-26.04-5.93-39.1l-.84,.08s-.1,0-.15,0c-1.09-.06-3.47-.06-6.2,.78-.32,.1-.64,.21-.97,.33-2.03,.76-4.17,2.01-6.05,4.07-5.45,6-6.55,16.47-3.25,31.13,1.82,8.07,4.76,16.11,8.74,23.9,3.23,6.32,8.86,17.79,10.27,23.73,2.03,8.56,9.34,17.68,17.73,17.8,.27,.99,.54,1.95,.8,2.87,1.97,6.88,5.08,13.33,9.23,19.15,1.28,1.79,2.75,3.78,4.37,5.9,.42,1.87,19.19,87.87-22.25,139.42-.04,.05-.08,.1-.12,.15v.03Zm225.82-243.62c1.95-9.52,3.38-19.26,4.27-28.96,2.06-.04,7.17,.36,10.98,4.7,5.03,5.73,5.97,15.99,2.82,30.5-1.74,7.98-4.52,15.92-8.26,23.61-3.77,7.74-8.55,18.17-9.85,23.88-2.04,8.92-9.38,16.6-15.96,16.91,5.68-21.41,11.97-50.87,16.01-70.65Zm-234.61,58.07c-1.36-5.73-6.38-16.19-10.35-23.95-3.94-7.71-6.86-15.67-8.65-23.66-3.22-14.32-2.21-24.49,3-30.23,4.53-4.99,10.95-4.95,12.58-4.85,1.27,12.77,3.23,25.62,5.84,38.22,4.01,19.3,9.56,44.93,14.05,61.5-7-.32-14.29-7.77-16.48-17.02Z"/>
        <path class="cls-6" d="M437.93,155.83c-2.49,.42-6.7,1.53-6.99,4.2-.08,.75,.33,1.32,1.11,1.51,.22,.05,.46,.08,.73,.08,2.26,0,6.13-1.8,6.88-3.68,.21-.52,.12-1.1-.24-1.54-.36-.45-.93-.66-1.5-.57Zm.81,1.74c-.64,1.6-4.87,3.4-6.45,3-.37-.09-.38-.25-.36-.44,.18-1.71,3.3-2.84,6.16-3.32,.03,0,.07,0,.1,0,.17,0,.34,.08,.46,.22,.06,.08,.19,.28,.09,.54Z"/>
        <path class="cls-6" d="M420.93,137.62c-.62-.06-1.22,.17-1.65,.63-.45,.48-.65,1.12-.55,1.77,.19,1.23,1.04,4.07,4.85,4.07h.06c.52,0,1-.26,1.31-.7,.33-.47,.41-1.07,.22-1.6-.9-2.51-2.4-3.99-4.24-4.16Zm3.2,5.19c-.07,.1-.23,.28-.5,.28h-.05c-2.93,0-3.68-2.02-3.87-3.22-.05-.34,.05-.68,.29-.93,.2-.21,.46-.32,.74-.32,.03,0,.06,0,.09,0,1.93,.18,2.95,2.27,3.39,3.5,.08,.22,.04,.49-.1,.69Z"/>
        <path class="cls-6" d="M250.21,159.97c.4,.07,.76,.1,1.11,.1,2.97,0,4.05-2.28,4.39-3.34,.2-.62,.1-1.29-.27-1.83-.36-.52-.91-.84-1.53-.88-1.86-.12-3.56,1.11-4.84,3.44-.27,.49-.28,1.1-.03,1.61,.24,.49,.67,.82,1.18,.9Zm-.27-2.04c.61-1.11,1.89-2.93,3.73-2.93,.06,0,.12,0,.18,0,.31,.02,.59,.18,.77,.45,.2,.29,.25,.64,.14,.96-.38,1.17-1.44,3.05-4.38,2.56-.26-.04-.39-.24-.45-.35-.11-.22-.1-.49,0-.7Z"/>
        <path class="cls-2" d="M385.58,331.42c-25.25,7.55-69.26,9.28-87.59,5.39l-.21,.98c2.07,.44,4.46,.8,7.12,1.1,1.03,2.36,8.77,19.05,23.29,24.44,5.09,1.89,9.95,2.83,14.61,2.83,7.23,0,13.99-2.28,20.42-6.86,6.73-4.79,14.7-14.71,16.45-25.28,2.16-.52,4.24-1.06,6.2-1.65l-.29-.96Zm-22.95,27.07c-10.28,7.32-21.43,8.59-34.1,3.9-13.36-4.95-20.85-19.81-22.49-23.38,5.26,.53,11.46,.8,18.15,.8,17.5,0,38.33-1.83,54.4-5.54-1.84,10.13-9.48,19.6-15.96,24.22Z"/>
        <path class="cls-8" d="M674.53,619.54c-5.29-10.6-10.89-20.46-16.63-29.33-9.01-13.9-20.54-25.52-34.29-34.55-44.95-29.54-68.18-36.1-124.3-51.94-16.41-4.63-35.02-9.89-57.92-16.75l-.03-.04-.12-.13c-.24,.23-.48,.44-.72,.67-46.86,43.79-100.03,42.44-136.46,33.53-35.82-8.76-62.88-26.29-68.07-29.81-.06,.08-.12,.15-.18,.23l-.76-.61v-.03c.03-.05,.07-.1,.11-.15-.04-.03-.08-.06-.09-.06l-.07,.1-.02-.07c-27.72,8.95-50.19,15.47-70.02,21.22-52.35,15.19-81.18,23.56-117.86,51.75-9.43,7.25-17.55,15.83-24.11,25.5-7.74,11.4-15.23,24.69-22.25,39.5l-.66,1.4c-.1,.2-.11,.43-.03,.64,.08,.21,.24,.38,.44,.47,9.61,4.29,98.15,27.66,222.25,37.22,35.97,2.77,71.74,4.15,107.08,4.15,35.67,0,70.92-1.41,105.45-4.23,84.84-6.93,165.52-22.44,239.78-46.1l.51-.16-.31-.78c-.22-.56-.46-1.11-.72-1.63Zm-451.71,47.75c-123.31-9.49-211.39-32.61-221.76-37.06l.59-1.24c7-14.76,14.46-28,22.17-39.36,6.51-9.58,14.55-18.09,23.9-25.27,36.52-28.07,65.3-36.42,117.53-51.58,19.74-5.73,42.11-12.22,69.67-21.11,3.69,2.54,31.56,21.17,68.88,30.29,13.96,3.41,27.59,5.12,40.78,5.12,8.97,0,17.73-.79,26.24-2.38,26.06-4.85,49.8-17.21,70.59-36.7,22.78,6.83,41.3,12.06,57.65,16.67,56.01,15.82,79.2,22.36,124.02,51.82,13.63,8.96,25.07,20.48,34,34.26,5.72,8.83,11.3,18.67,16.57,29.23,.21,.43,.42,.88,.6,1.33-168.94,53.71-338.7,54.66-451.42,45.97Z"/>
      </g>
      <path class="cls-4" d="M349.86,218.23s3.96,33.45,12.6,65.13l3.48,14.99c.37,1.58,.48,3.22,.18,4.82-.49,2.65-1.81,4.53-3.23,5.83-1.72,1.58-4.21,2.08-6.41,1.29-.47-.17-.98-.24-1.49-.24-1.97-.02-3.83,.92-5.1,2.42-.01,.02-.03,.03-.04,.05-4.12,4.93-8.45,3.06-10.53,.58-.46-.54-1.06-1.31-1.71-1.78-1.52-1.11-4.62-.88-6.6-.58-1.67,.25-3.4,.16-4.98-.46-3.23-1.26-4.82-3.58-5.59-5.8-.88-2.51-.73-5.26,.21-7.74l5.09-13.39c8.64-31.68,8.04-63.35,8.04-63.35l16.08-1.78Z"/>
      <path class="cls-4" d="M378.9,405.85c-5.5,2.75-13.75,4.78-28.61,5.91-25.99,1.97-37.98-5.1-42.51-8.17-1.41-.96-2.82-1.91-4.17-2.95-12.75-9.84-30.8-30.21-42.7-45.18l-2.11-2.44c2.14,12.26,8.22,57.86,0,85.4l2.61,.53s40.8,13.5,115.62-32.24"/>
    </g>
  </g>
</svg>