<svg width="3001" height="727" viewBox="0 0 3001 727" fill="none" xmlns="http://www.w3.org/2000/svg">
<path d="M3000.4 692.998V5.81344C2769.99 33.3373 2583.28 47.4166 2332.04 20.6081C2090.78 -20.6047 1938.61 9.46012 1697.65 45.2948C1307.91 115.949 977.674 -12.5041 572.929 20.6108C320.983 49.554 0.404297 5.81344 0.404297 5.81344L0.404638 692.998C0.404638 692.998 79.071 681.721 326 707.861C572.929 734 894 641.5 1116.31 692.861C1338.61 744.221 1766.35 692.998 1766.35 692.998C1766.35 692.998 2104.5 628.5 2383.38 692.998C2662.25 757.496 2753.96 713.544 3000.4 692.998Z" fill="url(#paint0_linear_703_17)"/>
<defs>
<linearGradient id="paint0_linear_703_17" x1="1479.22" y1="-33" x2="1479.22" y2="667.428" gradientUnits="userSpaceOnUse">
<stop stop-color="#1C3D71"/>
<stop offset="1" stop-color="#7094CA"/>
</linearGradient>
</defs>
</svg>
