<svg width="256" height="256" viewBox="0 0 256 256" fill="none" xmlns="http://www.w3.org/2000/svg">
<rect x="26" y="26" width="203" height="203" fill="white"/>
<path d="M26 127.503V229H229V26H26V127.503ZM189.591 119.415C194.745 120.703 198.678 122.993 202.287 126.729C204.159 128.727 206.928 132.369 207.153 133.238C207.216 133.491 198.389 139.423 193.038 142.744C192.848 142.87 192.071 142.036 191.199 140.745C188.588 136.939 185.851 135.299 181.661 135.011C175.508 134.592 171.512 137.815 171.575 143.194C171.575 144.773 171.797 145.706 172.444 147C173.798 149.804 176.314 151.479 184.205 154.898C198.738 161.146 204.955 165.27 208.818 171.137C213.132 177.677 214.102 188.119 211.171 195.883C207.949 204.327 199.959 210.061 188.715 211.964C185.236 212.577 176.986 212.481 173.25 211.806C165.098 210.356 157.365 206.328 152.595 201.044C150.724 198.982 147.086 193.6 147.311 193.21C147.406 193.083 148.247 192.566 149.182 192.017L156.722 187.672L162.558 184.287L163.782 186.095C165.488 188.706 169.228 192.28 171.483 193.473C177.96 196.889 186.853 196.404 191.234 192.474C193.105 190.767 193.876 188.994 193.876 186.384C193.876 184.031 193.59 183 192.363 181.23C190.783 178.978 187.561 177.075 178.407 173.11C167.934 168.6 163.424 165.796 159.3 161.349C156.915 158.771 154.66 154.647 153.724 151.2C152.95 148.332 152.757 141.145 153.369 138.246C155.526 128.096 163.163 121.071 174.185 118.977C177.763 118.302 186.08 118.559 189.588 119.428L189.591 119.415ZM141.935 127.884L141.998 136.194H115.577V211.27H96.8892V136.194H70.4683V128.042L70.6903 119.669C70.7855 119.542 86.8664 119.479 106.36 119.51L141.836 119.605L141.935 127.884Z" fill="#007ACC"/>
</svg>
